<?xml version="1.0" encoding="utf-8"?>
<!-- Generator: Adobe Illustrator 28.1.0, SVG Export Plug-In . SVG Version: 6.00 Build 0)  -->
<svg version="1.1" id="Layer_1" xmlns="http://www.w3.org/2000/svg" xmlns:xlink="http://www.w3.org/1999/xlink" x="0px" y="0px"
	 viewBox="0 0 1366 768" style="enable-background:new 0 0 1366 768;" xml:space="preserve">
<style type="text/css">
	.st0{fill:#42210B;}
	.st1{fill:#C69C6D;}
	.st2{fill:#A67C52;}
	.st3{fill:#FFFFFF;}
	.st4{fill:none;}
	.st5{fill:#FFFFFF;stroke:#ED1E79;stroke-miterlimit:10;}
</style>
<g>
	<ellipse class="st0" cx="638" cy="401.5" rx="180.5" ry="173"/>
	<path d="M638,229c48.09,0,93.3,17.95,127.29,50.54c16.53,15.84,29.5,34.29,38.57,54.83c9.38,21.26,14.14,43.85,14.14,67.13
		s-4.76,45.87-14.14,67.13c-9.06,20.54-22.04,38.99-38.57,54.83C731.3,556.05,686.09,574,638,574s-93.3-17.95-127.29-50.54
		c-16.53-15.84-29.5-34.29-38.57-54.83C462.76,447.37,458,424.78,458,401.5s4.76-45.87,14.14-67.13
		c9.06-20.54,22.04-38.99,38.57-54.83C544.7,246.95,589.91,229,638,229 M638,228c-99.96,0-181,77.68-181,173.5S538.04,575,638,575
		s181-77.68,181-173.5S737.96,228,638,228L638,228z"/>
</g>
<g>
	<ellipse class="st1" cx="638" cy="401.5" rx="163.5" ry="153"/>
	<path d="M638,249c43.55,0,84.49,15.87,115.28,44.69C784.05,322.49,801,360.78,801,401.5s-16.95,79.01-47.72,107.81
		C722.49,538.13,681.55,554,638,554s-84.49-15.87-115.28-44.69C491.95,480.51,475,442.22,475,401.5s16.95-79.01,47.72-107.81
		C553.51,264.87,594.45,249,638,249 M638,248c-90.57,0-164,68.72-164,153.5S547.43,555,638,555s164-68.72,164-153.5
		S728.57,248,638,248L638,248z"/>
</g>
<g>
	<circle class="st0" cx="642.5" cy="442.5" r="90"/>
	<path d="M642.5,353c49.35,0,89.5,40.15,89.5,89.5S691.85,532,642.5,532S553,491.85,553,442.5S593.15,353,642.5,353 M642.5,352
		c-49.98,0-90.5,40.52-90.5,90.5s40.52,90.5,90.5,90.5s90.5-40.52,90.5-90.5S692.48,352,642.5,352L642.5,352z"/>
</g>
<g>
	<path class="st2" d="M687.98,446.61c-5.12,6.63-6.14,16.17-2.55,23.73c0.55,1.15,1.24,2.31,2.37,2.91c1.36,0.73,3.14,0.53,4.34,1.5
		c1.25,1.02,1.34,2.9,2.25,4.23c0.98,1.43,2.85,2.07,4.58,1.92c1.73-0.15,3.34-0.97,4.77-1.95c5.23-3.59,8.69-9.75,8.71-16.09
		c0.01-1.94-0.29-3.86-0.59-5.78c-0.51-3.29-1.02-6.58-1.54-9.86c-0.22-1.4-0.45-2.85-1.16-4.08c-1.72-2.98-5.6-3.79-9.03-4.05
		c-0.79-0.06-1.61-0.1-2.36,0.17c-0.98,0.36-1.69,1.19-2.43,1.93c-1.9,1.88-4.3,3.26-6.88,3.94"/>
	<g>
		<path class="st3" d="M686.69,445.85c-4.67,6.17-6.1,14.63-3.82,22.02c0.54,1.74,1.24,3.58,2.35,5.04
			c1.25,1.65,2.84,2.06,4.76,2.53c1.98,0.48,2,2.29,2.85,3.86c0.84,1.57,2.44,2.64,4.18,2.98c3.96,0.76,7.73-1.79,10.43-4.43
			c2.71-2.65,4.75-6.05,5.77-9.71c1.21-4.32,0.54-8.58-0.14-12.93c-0.38-2.47-0.77-4.93-1.15-7.4c-0.31-2.01-0.55-4.13-1.74-5.85
			c-2.3-3.32-6.66-4.21-10.45-4.4c-1.13-0.06-2.24,0.08-3.24,0.65c-0.97,0.56-1.69,1.43-2.5,2.19c-1.68,1.58-3.72,2.66-5.93,3.28
			c-1.86,0.52-1.07,3.42,0.8,2.89c1.67-0.47,3.28-1.15,4.74-2.09c1.48-0.96,2.58-2.24,3.93-3.34c1.2-0.98,3.05-0.57,4.47-0.34
			c1.46,0.24,2.94,0.61,4.2,1.41c1.44,0.92,2.08,2.29,2.42,3.93c0.4,1.95,0.64,3.95,0.95,5.92c0.63,4.02,1.68,8.24,1.31,12.33
			c-0.29,3.21-1.58,6.29-3.44,8.9c-1.86,2.6-4.95,5.6-8.24,6.09c-1.46,0.22-3.05-0.22-3.78-1.59c-0.69-1.29-0.91-2.77-1.97-3.86
			c-1.17-1.2-2.74-1.3-4.25-1.74c-1.64-0.48-2.35-2.19-2.93-3.66c-2.75-7.03-1.53-15.17,3.01-21.16
			C690.44,445.83,687.84,444.33,686.69,445.85L686.69,445.85z"/>
	</g>
</g>
<g>
	<path class="st2" d="M692.03,394.39c-3.12,1.26-5.5,3.94-7.08,6.91c-2.35,4.42-3.11,9.83-1.31,14.5s6.38,8.35,11.39,8.37
		c1.83,0.01,3.7-0.43,5.45,0.1c0.83,0.25,1.59,0.72,2.42,0.95c2.46,0.68,5.1-0.85,6.52-2.98c1.41-2.13,1.87-4.73,2.29-7.25
		c0.41-2.41,0.81-4.81,1.22-7.22c0.22-1.33,0.45-2.68,0.22-4.01c-0.3-1.72-1.32-3.22-2.32-4.65c-1.58-2.28-3.2-4.59-5.42-6.26
		c-2.21-1.67-5.16-2.62-7.8-1.79c-3.23,1.01-5.76,4.47-9.11,4.02"/>
	<g>
		<path class="st3" d="M691.28,393.09c-6.91,2.94-10.8,11.68-10.05,18.88c0.73,6.98,6.1,13.38,13.44,13.68
			c2.16,0.09,4.19-0.48,6.26,0.39c1.77,0.74,3.48,1.13,5.35,0.46c3.68-1.3,5.53-4.78,6.36-8.39c0.49-2.17,0.8-4.39,1.17-6.59
			c0.36-2.11,0.91-4.3,0.94-6.45c0.04-3.85-2.78-7.22-5.06-10.08c-2.62-3.29-6.48-6.19-10.92-5.71c-1.95,0.21-3.61,1.14-5.21,2.21
			c-1.55,1.03-3.09,2.25-5.05,2.06c-1.92-0.18-1.91,2.82,0,3c2.98,0.29,5.24-1.71,7.63-3.16c2.87-1.74,5.93-1.29,8.55,0.74
			c2.52,1.96,4.63,4.98,6.18,7.75c0.92,1.64,0.98,3.2,0.7,5.02c-0.29,1.92-0.64,3.83-0.97,5.74c-0.54,3.17-0.76,7.23-3.16,9.65
			c-0.96,0.97-2.36,1.76-3.77,1.54c-0.69-0.11-1.33-0.47-1.97-0.73c-0.97-0.39-1.95-0.59-2.99-0.62c-1.68-0.05-3.36,0.33-5.03,0.06
			c-1.39-0.23-2.71-0.77-3.89-1.52c-2.46-1.56-4.27-4.04-5.08-6.82c-1.95-6.78,1.42-15.69,8.1-18.53
			C694.56,394.93,693.04,392.34,691.28,393.09L691.28,393.09z"/>
	</g>
</g>
<g>
	<path class="st2" d="M589.44,382.09c-4.61,1.15-8.27,4.8-10.52,8.98c-2.26,4.18-3.31,8.88-4.33,13.52c-0.28,1.28-0.51,2.8,0.4,3.75
		c0.49,0.51,1.22,0.73,1.92,0.87c3.52,0.72,7.17,0.17,10.69-0.54c5.87-1.19,12.3-3.33,15.01-8.67c1.36-2.68,1.55-5.78,1.71-8.78
		c0.11-1.97,0.13-4.16-1.19-5.62c-0.71-0.78-1.7-1.22-2.66-1.63c-3.25-1.41-6.89-2.84-10.24-1.67"/>
	<g>
		<path class="st3" d="M589.04,380.65c-6.46,1.71-10.71,7.28-13.05,13.25c-1.34,3.41-2.24,7.06-2.92,10.65
			c-0.25,1.32-0.4,2.74,0.24,3.98c0.81,1.57,2.5,2.04,4.12,2.29c3.76,0.57,7.57-0.06,11.26-0.85c2.93-0.63,5.84-1.49,8.51-2.86
			c2.47-1.27,4.69-3.08,6.18-5.44c1.88-2.99,2.21-6.58,2.4-10.02c0.1-1.74,0.18-3.57-0.46-5.23c-0.68-1.77-2.07-2.83-3.75-3.59
			c-3.65-1.65-7.74-3.26-11.76-1.98c-1.83,0.58-1.05,3.48,0.8,2.89c2.95-0.94,5.95,0.18,8.67,1.35c1.14,0.49,2.57,0.96,3.14,2.16
			c0.52,1.1,0.44,2.42,0.39,3.6c-0.12,2.86-0.24,5.97-1.6,8.55c-1.07,2.04-2.79,3.56-4.77,4.7c-2.07,1.19-4.34,1.94-6.65,2.53
			c-2.77,0.71-5.63,1.29-8.49,1.4c-1.44,0.06-2.96,0.03-4.36-0.34c-1.49-0.4-1.14-1.67-0.87-2.91c0.65-2.97,1.33-5.95,2.34-8.83
			c1.91-5.45,5.54-10.85,11.42-12.4C591.7,383.05,590.91,380.15,589.04,380.65L589.04,380.65z"/>
	</g>
</g>
<g>
	<g>
		<path class="st3" d="M605.39,389.54c2.88-2.24,4.83-5.36,6.97-8.25c2.1-2.83,4.41-5.01,7.72-6.32c3.08-1.22,6.44-2.22,8.54-4.96
			c1.11-1.45,1.55-3.54,3.18-4.53c1.52-0.92,3.48-0.94,5.2-0.98c1.93-0.05,1.93-3.05,0-3c-1.94,0.05-3.93,0.16-5.73,0.92
			c-1.83,0.76-2.99,2.07-3.89,3.8c-0.93,1.78-1.87,3.04-3.66,4.01c-1.52,0.82-3.17,1.34-4.76,1.98c-3.58,1.45-6.19,3.64-8.53,6.7
			c-2.26,2.95-4.18,6.2-7.15,8.51C601.74,388.61,603.88,390.72,605.39,389.54L605.39,389.54z"/>
	</g>
</g>
<g>
	<path class="st2" d="M618.7,453.34c-2.99-0.17-6.31-0.24-8.56,1.74c-1.11,0.98-1.8,2.34-2.85,3.38c-1.42,1.41-3.37,2.1-5.11,3.09
		c-3.1,1.77-5.54,4.47-7.93,7.13c-1.99,2.22-4.08,4.68-4.3,7.66c-0.18,2.45,1.07,4.94,3.09,6.34c2.02,1.4,4.73,1.72,7.05,0.92
		c0.95-0.33,1.85-0.83,2.85-0.98c1-0.15,2.17,0.18,2.59,1.1c0.23,0.5,0.21,1.11,0.51,1.57c0.41,0.62,1.25,0.76,1.99,0.76
		c2.92,0,5.81-1.33,7.7-3.56c0.92-1.09,1.62-2.38,2.71-3.3c2.5-2.11,6.45-1.82,8.86-4.03c1.05-0.96,1.67-2.29,2.21-3.61
		c1.49-3.65,2.53-7.6,2.04-11.51c-0.49-3.91-2.74-7.76-6.34-9.35"/>
	<g>
		<path class="st3" d="M618.7,451.84c-3.98-0.22-8.03,0.02-10.7,3.37c-0.63,0.79-1.17,1.64-1.92,2.33c-0.78,0.73-1.76,1.22-2.7,1.7
			c-1.94,0.99-3.73,2.06-5.39,3.48c-1.69,1.44-3.18,3.1-4.66,4.75c-1.4,1.56-2.85,3.18-3.79,5.06c-1.81,3.63-1.28,8.02,1.86,10.76
			c1.47,1.28,3.31,2.02,5.25,2.2c0.97,0.09,1.95,0.01,2.91-0.19c1.1-0.23,2.08-0.8,3.16-1.09c1.07-0.28,1.36-0.08,1.64,0.87
			c0.28,0.93,0.79,1.63,1.66,2.06c1.63,0.81,3.95,0.38,5.6-0.17c1.86-0.62,3.6-1.69,4.93-3.14c1.33-1.44,2.15-3.29,3.96-4.2
			c1.62-0.82,3.47-1.08,5.15-1.76c1.75-0.72,3.16-1.83,4.15-3.46c1.27-2.09,2.09-4.64,2.68-7.01c0.63-2.54,0.89-5.16,0.53-7.76
			c-0.59-4.26-3.05-8.39-7.03-10.24c-1.74-0.81-3.27,1.78-1.51,2.59c7.43,3.45,6.22,12.94,3.61,19.16c-0.67,1.6-1.49,2.99-3.1,3.76
			c-1.42,0.69-3.02,0.94-4.5,1.49c-1.5,0.56-2.85,1.33-3.91,2.55c-1.14,1.32-1.97,2.86-3.41,3.91c-1.37,1-3.05,1.62-4.74,1.69
			c-0.25,0.01-0.72,0.08-0.95-0.04c-0.3-0.17-0.18-0.19-0.3-0.54c-0.28-0.82-0.52-1.47-1.22-2.02c-1.42-1.13-3.26-0.95-4.85-0.34
			c-1.66,0.64-3.21,1.19-5.02,0.79c-3.52-0.78-5.53-4.41-4.21-7.78c0.65-1.66,1.85-3.07,3.02-4.39c1.27-1.44,2.56-2.88,3.94-4.21
			c1.55-1.49,3.23-2.73,5.15-3.71c1.72-0.88,3.47-1.73,4.76-3.2c1.29-1.48,2.17-3.23,4.16-3.87c1.86-0.6,3.86-0.48,5.78-0.38
			C620.63,454.94,620.63,451.94,618.7,451.84L618.7,451.84z"/>
	</g>
</g>
<g>
	<g>
		<path class="st3" d="M637.15,353.6c-4.54,12.89,2.79,25.98,1.13,39.05c-0.45,3.58-1.99,6.73-3.14,10.1
			c-1.19,3.49-1.48,7.18-1.45,10.84c0.07,6.66,1.32,14.14-1.92,20.31c-1.75,3.35-5.06,5.41-6.42,9.02
			c-0.97,2.57-1.45,8.78-5.36,8.55c-1.93-0.12-1.92,2.88,0,3c3.33,0.2,5.63-2.72,6.68-5.56c0.66-1.77,0.93-3.67,1.66-5.41
			c0.69-1.66,1.94-2.88,3.14-4.17c4.86-5.19,5.63-12.14,5.43-18.97c-0.12-3.95-0.46-7.93-0.01-11.87c0.45-3.99,2.31-7.43,3.45-11.23
			c1.97-6.56,1-13.5-0.08-20.13c-1.22-7.5-2.84-15.36-0.24-22.75C640.68,352.57,637.79,351.79,637.15,353.6L637.15,353.6z"/>
	</g>
</g>
<g>
	<g>
		<path class="st3" d="M638.86,377.88c-3.65,1.58-6.76,4.54-8.44,8.17c-0.97,2.11-1.28,4.51-2.42,6.53
			c-1.06,1.88-2.69,3.36-3.92,5.12c-2.55,3.65-2.93,8.17-4.57,12.2c-0.71,1.74-1.71,3.49-3.2,4.68c-1.61,1.29-3.8,1.41-5.45,2.63
			c-1.95,1.45-3.01,3.84-4.51,5.7c-1.76,2.17-3.75,4.13-5.74,6.08c-1.38,1.36,0.74,3.48,2.12,2.12c1.72-1.69,3.44-3.39,5.02-5.22
			c1.46-1.69,2.56-3.62,3.96-5.35c1.39-1.72,3.61-1.82,5.42-2.9c1.6-0.96,2.87-2.39,3.83-3.97c2.21-3.62,2.63-7.87,4.22-11.73
			c0.86-2.09,2.26-3.69,3.67-5.42c1.42-1.74,2.39-3.53,3.05-5.68c0.72-2.34,1.48-4.53,3.09-6.43c1.47-1.74,3.3-3.04,5.38-3.94
			C642.14,379.7,640.62,377.12,638.86,377.88L638.86,377.88z"/>
	</g>
</g>
<g>
	<path class="st2" d="M599.86,429.98c-1.05-2.22-3.78-3.17-6.23-3.1c-2.46,0.07-4.82,0.92-7.25,1.29c-3.25,0.5-6.57,0.13-9.84,0.45
		c-3.27,0.32-6.72,1.52-8.52,4.27c-0.91,1.39-1.31,3.04-2.15,4.47c-0.65,1.1-1.58,2.13-1.67,3.41c-0.06,0.93,0.34,1.83,0.74,2.67
		c1,2.12,1.99,4.24,2.99,6.36c1.27,2.71,2.91,5.72,5.82,6.4c3.09,0.71,5.97-1.54,8.69-3.18c5.74-3.45,12.69-4.48,18.41-7.98
		c2.56-1.57,5.04-4.07,4.83-7.07c-0.22-3.01-2.99-5.1-5.51-6.77"/>
	<g>
		<path class="st3" d="M601.16,429.22c-1.72-3.3-5.69-4.15-9.1-3.7c-2.23,0.29-4.37,1.03-6.61,1.27c-2.34,0.26-4.69,0.13-7.04,0.21
			c-3.66,0.13-7.53,0.87-10.29,3.45c-1.5,1.4-2.15,3.22-2.98,5.04c-0.78,1.7-2.24,3.14-2.41,5.07c-0.18,2.03,1.08,3.98,1.91,5.75
			c0.91,1.94,1.77,3.92,2.77,5.82c1.61,3.04,4.18,5.9,7.93,5.68c4.09-0.24,7.46-3.55,11.07-5.17c3.84-1.73,7.94-2.82,11.79-4.54
			c3.63-1.62,8.04-4.19,8.85-8.46c0.85-4.48-2.79-7.52-6.13-9.74c-1.61-1.07-3.11,1.52-1.51,2.59c2.23,1.49,5.53,3.74,4.63,6.88
			c-0.86,3.02-4.34,4.76-6.96,5.96c-3.13,1.44-6.45,2.41-9.65,3.66c-1.58,0.62-3.14,1.29-4.63,2.09c-1.5,0.81-2.89,1.8-4.38,2.62
			c-1.38,0.76-3,1.45-4.59,0.95c-1.38-0.44-2.36-1.62-3.11-2.81c-1.79-2.85-3.1-6.11-4.48-9.17c-0.33-0.73-0.68-1.45-0.44-2.25
			c0.18-0.6,0.62-1.14,0.96-1.66c0.98-1.51,1.45-3.23,2.35-4.77c1.51-2.57,4.63-3.58,7.44-3.88c2.18-0.23,4.38-0.12,6.57-0.18
			c2.01-0.06,3.97-0.33,5.93-0.77c2.99-0.67,7.72-1.91,9.53,1.57C599.46,432.45,602.05,430.94,601.16,429.22L601.16,429.22z"/>
	</g>
</g>
<g>
	<g>
		<path class="st3" d="M638.75,391.1c-0.31,2.99,1.23,5.59,2.48,8.19c1.32,2.74,1.49,5.51,1.59,8.5c0.09,2.94,0.28,5.94,1.71,8.59
			c1.39,2.57,3.73,4.45,4.07,7.51c0.35,3.06-0.41,6.13,0.35,9.17c0.66,2.65,2.22,4.96,3.43,7.37c1.17,2.34,1.67,4.48,0.48,6.92
			c-0.59,1.2-1.25,2.38-1.44,3.73c-0.2,1.44,0.2,2.79,0.9,4.04c0.75,1.33,2.01,2.56,2.26,4.12c0.24,1.48-1.43,2.25-1.91,3.53
			c-0.64,1.68,0.34,2.51,1.43,3.56c0.59,0.57,0.49,1.61-0.42,1.82c-1.88,0.44-1.08,3.34,0.8,2.89c2.32-0.55,3.61-3.26,2.74-5.45
			c-0.2-0.5-0.48-0.92-0.87-1.3c-0.18-0.17-0.74-0.41-0.83-0.63c0.09,0.22-0.01,0.03,0.21-0.21c0.99-1.06,1.85-2.16,1.89-3.67
			c0.04-1.45-0.56-2.85-1.31-4.05c-0.74-1.18-1.96-2.43-1.95-3.9c0.01-1.31,0.91-2.51,1.43-3.67c0.6-1.34,0.94-2.74,0.81-4.21
			c-0.22-2.66-1.6-5.02-2.85-7.33c-0.64-1.19-1.29-2.38-1.7-3.67c-0.53-1.66-0.51-3.35-0.45-5.07c0.12-3.19,0.1-6.23-1.69-9
			c-0.78-1.2-1.75-2.28-2.49-3.51c-0.79-1.3-1.2-2.74-1.39-4.24c-0.44-3.45,0.01-7-0.99-10.38c-0.95-3.22-3.65-6.14-3.28-9.65
			C641.95,389.19,638.95,389.2,638.75,391.1L638.75,391.1z"/>
	</g>
</g>
<g>
	<path class="st2" d="M653.92,469.61c3.36,2.07,6.73,4.14,10.09,6.22c1.48,0.91,2.98,1.84,4.2,3.08c2.01,2.05,3.12,4.81,4.05,7.53
		c1.25,3.65,2.27,7.55,1.52,11.34c-0.76,3.86-3.24,7.12-5.66,10.22c-0.78,1-1.58,2.01-2.53,2.85c-1.73,1.51-3.91,2.39-6.09,3.12
		c-6.69,2.24-13.73,3.32-20.77,3.78c-2.77,0.18-5.65,0.26-8.23-0.79c-5.01-2.05-7.52-8.69-5.12-13.54c1.1-2.22,3-3.98,4.06-6.22
		c0.86-1.83,1.12-3.9,1.96-5.74c1.55-3.39,4.86-5.59,8.08-7.47c1.67-0.98,3.44-2.01,4.41-3.69c0.6-1.04,0.83-2.25,1.36-3.32
		c1.07-2.18,3.2-3.6,5.23-4.92c1.36-0.88,2.72-1.77,4.08-2.65"/>
	<g>
		<path class="st3" d="M653.17,470.91c2.38,1.47,4.77,2.94,7.15,4.4c2.13,1.31,4.51,2.51,6.37,4.21c1.71,1.55,2.77,3.63,3.58,5.76
			c0.9,2.39,1.72,4.87,2.1,7.4c0.79,5.23-1.55,9.37-4.63,13.38c-1.46,1.9-2.88,3.77-5.02,4.95c-2.23,1.23-4.77,1.94-7.22,2.6
			c-5.02,1.36-10.18,2.14-15.37,2.54c-4.32,0.34-9.38,0.75-12.3-3.12c-2.2-2.91-2.49-6.84-0.55-9.93c1.25-1.99,2.88-3.69,3.78-5.9
			c0.88-2.16,1.15-4.51,2.47-6.48c1.37-2.03,3.48-3.48,5.53-4.74c2.02-1.24,4.25-2.32,5.68-4.28c0.75-1.03,1.1-2.22,1.55-3.4
			c0.45-1.17,1.18-2.09,2.11-2.92c2.05-1.83,4.61-3.19,6.9-4.68c1.61-1.05,0.11-3.65-1.51-2.59c-2.32,1.51-4.76,2.92-6.92,4.66
			c-2.02,1.63-2.96,3.5-3.87,5.87c-0.92,2.38-3.24,3.41-5.29,4.66c-2.07,1.27-4.15,2.69-5.73,4.56c-1.7,2-2.45,4.24-3.18,6.72
			c-0.77,2.62-2.41,4.45-3.88,6.68c-2.43,3.66-2.53,8.22-0.45,12.08c2.36,4.38,6.82,6.06,11.61,6.04c5.67-0.02,11.5-0.85,17.02-2.07
			c5.2-1.15,11.25-2.55,14.88-6.75c3.35-3.88,6.84-8.43,7.45-13.68c0.38-3.21-0.33-6.45-1.29-9.5c-0.87-2.76-1.86-5.61-3.58-7.97
			c-1.78-2.44-4.32-3.95-6.85-5.51c-3.01-1.86-6.03-3.71-9.04-5.57C653.03,467.3,651.52,469.89,653.17,470.91L653.17,470.91z"/>
	</g>
</g>
<g>
	<g>
		<path class="st3" d="M688.29,393.62c-1.84,0.81-3.36-2.34-3.92-3.55c-0.89-1.9-1.86-3.88-3.79-4.92
			c-2.02-1.09-4.45-1.02-6.64-1.54c-2.06-0.49-4.15-1.29-5.58-2.92c-1.35-1.54-1.94-3.6-2.96-5.35c-0.99-1.69-2.32-2.98-4.12-3.75
			c-1.66-0.71-3.46-0.98-5.13-1.65c-0.56-0.22-1.16-0.51-1.56-0.97c-0.68-0.79-0.56-1.97-0.9-2.9c-0.89-2.46-3.89-3.34-6.04-4.37
			c-2.83-1.36-5.65-2.71-8.48-4.07c-1.73-0.83-3.26,1.75-1.51,2.59c2.61,1.25,5.22,2.5,7.83,3.76c1.21,0.58,2.43,1.15,3.64,1.75
			c0.45,0.22,0.98,0.44,1.35,0.79c0.51,0.49,0.52,1.12,0.65,1.77c0.81,4.19,4.9,4.61,8.29,5.78c4.19,1.45,4.36,6.49,7.34,9.28
			c1.67,1.56,3.82,2.5,6.01,3.07c1.06,0.28,2.14,0.45,3.23,0.61c1.2,0.17,2.57,0.28,3.57,1.04c1.92,1.48,2.3,4.38,3.81,6.22
			c1.62,1.97,4,3,6.43,1.94C691.57,395.44,690.04,392.85,688.29,393.62L688.29,393.62z"/>
	</g>
</g>
<g>
	<g>
		<path class="st3" d="M688.88,442.97c-2.73-0.34-5.23-2.06-6.61-4.42c-1.52-2.61-1.46-5.81-3.11-8.41
			c-1.34-2.12-3.23-3.78-5.05-5.46c-1.67-1.54-3.55-3.22-4.31-5.43c-1.02-2.97,0.33-6.2-0.82-9.19c-0.88-2.29-2.67-3.99-4.49-5.55
			c-1.71-1.47-3.76-2.98-4.64-5.14c-0.59-1.45-0.51-3.07-0.69-4.59c-0.19-1.58-0.61-3.05-1.29-4.49
			c-3.2-6.84-10.54-9.93-17.12-12.56c-1.79-0.72-2.57,2.18-0.8,2.89c5.91,2.36,12.87,5.19,15.48,11.53
			c1.19,2.88,0.55,6.11,1.91,8.94c1.06,2.19,2.97,3.79,4.78,5.34c1.69,1.45,3.68,3.04,4.24,5.3c0.4,1.61,0.06,3.31,0.06,4.94
			c0,1.5,0.25,2.93,0.85,4.3c2.05,4.67,7.19,6.86,9.62,11.23c0.86,1.54,1.09,3.32,1.59,4.99c0.47,1.6,1.19,3.07,2.25,4.37
			c2.04,2.53,4.95,4.01,8.15,4.41C690.79,446.21,690.77,443.2,688.88,442.97L688.88,442.97z"/>
	</g>
</g>
<rect x="261.52" y="147.2" class="st4" width="50.76" height="3.24"/>
<g>
	<path class="st5" d="M512.31,334.24c0.72-0.58,1.45-0.95,2.19-1.1c0.74-0.15,1.53-0.27,2.36-0.36l5.86-26.72
		c-0.06,0-0.24,0-0.53-0.01c-0.29-0.01-0.61-0.04-0.96-0.08s-0.7-0.12-1.04-0.22c-0.34-0.11-0.6-0.26-0.77-0.45
		c-0.08-0.12-0.18-0.29-0.29-0.49c-0.12-0.2-0.23-0.42-0.34-0.66s-0.2-0.48-0.28-0.73c-0.08-0.25-0.12-0.49-0.12-0.74
		c0-0.4,0.15-0.74,0.46-1.02c0.3-0.27,0.68-0.49,1.12-0.66c0.45-0.17,0.93-0.29,1.44-0.36c0.52-0.07,0.98-0.11,1.41-0.11
		c1.97,0,3.79,0.07,5.47,0.2c1.68,0.13,3.25,0.42,4.71,0.86s2.84,1.07,4.12,1.87c1.29,0.81,2.52,1.89,3.69,3.25
		c0.44,0.51,0.86,1.08,1.25,1.72s0.75,1.32,1.05,2.07c0.3,0.75,0.55,1.55,0.74,2.4s0.28,1.76,0.28,2.71c0,0.51-0.02,1.05-0.07,1.61
		s-0.11,1.05-0.19,1.45c-0.45,2.04-1.09,3.85-1.91,5.43c-0.82,1.58-1.77,2.98-2.86,4.2c-1.09,1.22-2.28,2.28-3.57,3.18
		s-2.64,1.68-4.03,2.35c-1.39,0.67-2.8,1.25-4.24,1.74s-2.84,0.93-4.2,1.32h0.02c-0.61,0.21-1.27,0.4-1.97,0.55s-1.41,0.29-2.13,0.4
		s-1.43,0.19-2.14,0.25s-1.38,0.09-2,0.09c-0.69,0-1.27-0.05-1.73-0.15s-0.85-0.23-1.14-0.4c-0.29-0.17-0.5-0.36-0.62-0.57
		c-0.12-0.21-0.19-0.44-0.19-0.69c0-0.35,0.09-0.72,0.27-1.1S511.9,334.57,512.31,334.24z M522.62,326.66
		c-0.19,0.9-0.38,1.82-0.59,2.77s-0.4,1.88-0.59,2.8l0.54-0.13c0.34-0.09,0.81-0.22,1.39-0.4s1.26-0.4,2.03-0.66
		c0.77-0.26,1.57-0.58,2.41-0.95s1.74-0.81,2.68-1.33s1.88-1.11,2.8-1.77s1.8-1.38,2.65-2.15s1.59-1.61,2.23-2.5
		c0.64-0.89,1.15-1.82,1.54-2.8s0.57-1.99,0.57-3.05c0-1.07-0.19-2.09-0.56-3.05c-0.38-0.96-0.88-1.85-1.51-2.67
		c-0.63-0.82-1.37-1.55-2.2-2.19c-0.84-0.64-1.71-1.19-2.61-1.65s-1.82-0.81-2.75-1.04s-1.81-0.36-2.64-0.36
		c-1.17,3.42-2.17,6.88-3,10.4S523.39,323.03,522.62,326.66z"/>
	<path class="st5" d="M547.77,334.87c0.89-4.03,1.81-8.01,2.77-11.95c0.95-3.93,1.88-7.92,2.77-11.95c0.11-0.53,0.22-1.03,0.33-1.51
		s0.21-0.95,0.3-1.43s0.17-0.96,0.22-1.44c0.05-0.48,0.08-0.99,0.08-1.52c0-0.4-0.02-0.77-0.07-1.11s-0.07-0.71-0.07-1.14
		c0-0.4,0.05-0.84,0.14-1.29c0.23-1.07,0.57-1.87,1-2.4c0.43-0.53,1.08-0.79,1.96-0.79c0.36,0,0.71,0.04,1.04,0.12s0.67,0.17,1,0.28
		c0.36,0.12,0.73,0.23,1.11,0.32c0.38,0.09,0.77,0.13,1.16,0.13c0.31,0,0.62-0.02,0.91-0.05s0.64-0.07,1.02-0.11
		c0.38-0.04,0.84-0.07,1.36-0.11c0.52-0.04,1.18-0.05,1.98-0.05c0.44,0,0.95,0.02,1.55,0.05c0.59,0.04,1.21,0.11,1.85,0.24
		s1.29,0.3,1.95,0.54s1.27,0.56,1.84,0.96s1.07,0.9,1.51,1.49c0.44,0.59,0.77,1.3,0.98,2.13c0.11,0.4,0.18,0.77,0.22,1.11
		c0.04,0.33,0.06,0.66,0.06,0.98c0,1.07-0.24,2.13-0.73,3.17c-0.55,1.18-1.29,2.28-2.21,3.31s-2.01,2-3.25,2.92
		c-0.48,0.37-1.05,0.75-1.69,1.15c-0.64,0.4-1.27,0.77-1.89,1.14c-0.62,0.36-1.17,0.69-1.66,0.99s-0.83,0.53-1.02,0.69
		c0.55,0.3,1.09,0.61,1.64,0.94s1.11,0.72,1.68,1.18s1.15,1.01,1.73,1.66c0.59,0.65,1.2,1.45,1.83,2.39
		c0.63,0.94,1.29,2.06,1.97,3.34c0.68,1.29,1.39,2.8,2.12,4.54c0.19,0.42,0.28,0.87,0.28,1.35c0,0.37-0.07,0.74-0.2,1.11
		c-0.13,0.37-0.31,0.7-0.54,1s-0.5,0.54-0.81,0.73s-0.65,0.28-1.01,0.28c-0.55,0-1-0.23-1.36-0.69s-0.7-1.06-1.03-1.8
		s-0.67-1.58-1.02-2.51s-0.79-1.87-1.3-2.83c-0.56-1.02-1.18-1.99-1.86-2.9s-1.4-1.71-2.17-2.38c-0.77-0.67-1.55-1.2-2.37-1.6
		c-0.81-0.4-1.62-0.59-2.44-0.59h-0.35c-0.48,0-0.92,0.05-1.3,0.15s-0.75,0.18-1.11,0.25c-0.48-0.19-0.84-0.51-1.05-0.95
		s-0.33-0.93-0.33-1.48v-0.37l-1.88,8.32c-0.06,0.26-0.15,0.62-0.26,1.08s-0.23,0.96-0.38,1.51s-0.29,1.12-0.43,1.72
		s-0.29,1.16-0.42,1.69c-0.13,0.53-0.25,1-0.35,1.43s-0.18,0.74-0.22,0.95c-0.22,0.44-0.5,0.79-0.83,1.04s-0.7,0.38-1.09,0.38
		c-0.69,0-1.16-0.23-1.43-0.7c-0.27-0.47-0.4-1.01-0.4-1.62c0-0.25,0.02-0.5,0.05-0.75C547.68,335.34,547.72,335.1,547.77,334.87z
		 M559.28,305.08c-0.09,0.35-0.23,0.86-0.41,1.53c-0.18,0.67-0.38,1.43-0.6,2.27c-0.22,0.85-0.45,1.75-0.7,2.72
		c-0.25,0.97-0.5,1.94-0.75,2.92s-0.49,1.92-0.73,2.84s-0.45,1.73-0.63,2.46c0.31-0.46,0.78-0.87,1.41-1.23s1.33-0.7,2.11-1.02
		c0.61-0.25,1.36-0.59,2.25-1.04c0.89-0.45,1.82-0.96,2.8-1.54s1.95-1.21,2.93-1.89s1.85-1.37,2.62-2.09
		c0.77-0.71,1.4-1.43,1.89-2.14s0.73-1.4,0.73-2.07c0-0.65-0.2-1.17-0.61-1.54s-0.91-0.66-1.52-0.86s-1.28-0.32-2-0.38
		s-1.4-0.09-2.03-0.09c-1.12,0-2.25,0.08-3.38,0.24S560.4,304.63,559.28,305.08z"/>
	<path class="st5" d="M590.45,319.37c0,1.21-0.41,2.27-1.24,3.16s-1.77,1.33-2.84,1.33c-0.81,0-1.5-0.32-2.07-0.96
		c-0.57-0.64-0.86-1.42-0.86-2.34c0-1.21,0.43-2.28,1.3-3.21c0.87-0.92,1.82-1.39,2.87-1.39c0.81,0,1.49,0.33,2.03,0.98
		S590.45,318.4,590.45,319.37z"/>
	<path class="st5" d="M628.84,306.25c0.09-0.46,0.21-0.95,0.35-1.47s0.33-0.99,0.56-1.43c0.23-0.43,0.54-0.79,0.91-1.08
		c0.38-0.29,0.85-0.44,1.43-0.44c0.55,0,1.04,0.17,1.46,0.51s0.82,0.69,1.16,1.04c0.41,0.3,0.8,0.91,1.17,1.82s0.76,2.04,1.16,3.38
		s0.83,2.85,1.29,4.54s0.97,3.46,1.52,5.31s1.18,3.74,1.86,5.66c0.69,1.93,1.47,3.81,2.34,5.64c0.14,0.28,0.3,0.61,0.49,0.99
		c0.19,0.38,0.38,0.73,0.57,1.07s0.38,0.62,0.54,0.85c0.16,0.23,0.29,0.34,0.36,0.34c0.05,0,0.1-0.13,0.16-0.4s0.13-0.58,0.21-0.95
		c0.08-0.37,0.16-0.75,0.25-1.14c0.09-0.39,0.17-0.7,0.25-0.95c0.3-0.81,0.62-1.74,0.97-2.79c0.35-1.05,0.74-2.32,1.17-3.8
		c0.43-1.49,0.9-3.25,1.42-5.29c0.52-2.04,1.09-4.46,1.71-7.26c0.16-0.69,0.32-1.47,0.5-2.34s0.35-1.76,0.52-2.67
		s0.31-1.79,0.43-2.65c0.12-0.86,0.21-1.61,0.26-2.24c0-0.11,0.01-0.29,0.02-0.55s0.04-0.56,0.08-0.9s0.09-0.68,0.15-1.04
		c0.06-0.36,0.14-0.69,0.25-0.99s0.23-0.55,0.39-0.74c0.16-0.19,0.34-0.29,0.56-0.29s0.49,0.04,0.81,0.11
		c0.32,0.07,0.61,0.18,0.88,0.32c0.3,0.46,0.57,1.01,0.81,1.65s0.36,1.51,0.36,2.6c0,0.69-0.06,1.51-0.19,2.47s-0.29,1.99-0.48,3.09
		s-0.41,2.23-0.66,3.39c-0.24,1.16-0.49,2.28-0.74,3.34c-0.25,1.07-0.49,2.04-0.71,2.93c-0.23,0.89-0.42,1.62-0.57,2.21
		c-0.28,1.02-0.57,2.07-0.88,3.16c-0.3,1.08-0.64,2.22-1.01,3.41c-0.37,1.19-0.77,2.45-1.2,3.78s-0.91,2.75-1.44,4.26
		c-0.23,0.69-0.5,1.37-0.81,2.06c-0.3,0.69-0.65,1.31-1.04,1.86c-0.39,0.55-0.83,1-1.32,1.35s-1.04,0.51-1.65,0.51
		c-0.36,0-0.73-0.06-1.11-0.17c-0.38-0.11-0.71-0.35-0.97-0.7c-1.28-1.67-2.42-3.57-3.42-5.69c-1-2.12-1.89-4.34-2.68-6.65
		s-1.49-4.66-2.1-7.02s-1.16-4.63-1.66-6.8l-0.14-0.61c-0.06-0.25-0.12-0.5-0.18-0.75s-0.11-0.49-0.16-0.7
		c-0.05-0.21-0.12-0.38-0.19-0.51c-0.07-0.13-0.15-0.2-0.25-0.2s-0.21,0.19-0.35,0.58c-0.14,0.39-0.28,0.82-0.42,1.31
		c-0.14,0.48-0.27,0.96-0.39,1.41s-0.19,0.75-0.22,0.87c-0.11,0.46-0.27,1.11-0.49,1.97s-0.46,1.82-0.74,2.89s-0.57,2.21-0.89,3.41
		s-0.63,2.35-0.93,3.47c-0.3,1.12-0.58,2.15-0.84,3.1s-0.48,1.72-0.66,2.3c-0.14,0.46-0.31,1.05-0.52,1.77
		c-0.2,0.72-0.41,1.45-0.61,2.18s-0.39,1.4-0.56,1.99s-0.28,0.99-0.33,1.19c-0.19,0.67-0.46,1.18-0.83,1.52s-0.74,0.51-1.11,0.51
		c-0.23,0-0.47-0.09-0.7-0.28s-0.44-0.41-0.62-0.67c-0.18-0.26-0.33-0.55-0.45-0.86c-0.12-0.31-0.18-0.59-0.18-0.83
		c0-0.14,0.04-0.37,0.12-0.67c0.08-0.31,0.2-0.83,0.38-1.57l0.61-2.72L628.84,306.25z"/>
	<path class="st5" d="M661.96,325.5c0.34-1.78,0.71-3.37,1.11-4.77c0.4-1.4,0.79-2.7,1.18-3.91c0.39-1.21,0.76-2.36,1.11-3.46
		c0.35-1.1,0.66-2.24,0.93-3.42l0.28-1.27c0.06-0.32,0.12-0.71,0.16-1.19s0.1-0.97,0.15-1.49s0.13-1.03,0.22-1.54
		c0.09-0.51,0.23-0.97,0.41-1.37c0.18-0.4,0.41-0.74,0.69-0.99s0.64-0.38,1.08-0.38c0.48,0,0.89,0.1,1.23,0.29s0.61,0.45,0.81,0.77
		s0.35,0.68,0.45,1.1s0.14,0.84,0.14,1.28c0,0.37-0.02,0.74-0.06,1.11c-0.04,0.37-0.1,0.71-0.18,1.03
		c-0.17,0.79-0.45,1.72-0.84,2.77s-0.82,2.22-1.29,3.5s-0.95,2.66-1.43,4.15s-0.91,3.06-1.29,4.71c-0.22,0.93-0.41,1.95-0.57,3.06
		s-0.25,2.11-0.25,3.01c0,0.72,0.05,1.4,0.16,2.05s0.3,1.21,0.59,1.69c0.28,0.48,0.66,0.87,1.14,1.15c0.48,0.28,1.08,0.42,1.82,0.42
		c0.56,0,1.14-0.05,1.75-0.16c0.6-0.11,1.32-0.36,2.14-0.77c1.22-0.62,2.37-1.41,3.46-2.39s2.09-2.09,3.02-3.34
		c0.93-1.25,1.79-2.6,2.58-4.04c0.79-1.44,1.5-2.94,2.14-4.49s1.21-3.12,1.7-4.7c0.49-1.58,0.91-3.14,1.25-4.67
		c0.14-0.65,0.25-1.26,0.33-1.84c0.08-0.57,0.14-1.16,0.18-1.76s0.07-1.24,0.09-1.93c0.02-0.69,0.07-1.47,0.13-2.35
		c0.05-0.7,0.22-1.32,0.53-1.84s0.77-0.78,1.39-0.78c0.39,0,0.73,0.18,1.02,0.53c0.29,0.35,0.53,0.79,0.71,1.31s0.33,1.07,0.42,1.65
		s0.14,1.1,0.14,1.56c0,0.88-0.08,1.83-0.23,2.85c-0.16,1.02-0.34,2-0.56,2.93c-0.45,2.02-1,4.06-1.63,6.1
		c-0.63,2.04-1.39,4.04-2.26,5.99s-1.89,3.85-3.06,5.69c-1.16,1.84-2.5,3.56-4.02,5.16c-0.75,0.79-1.56,1.57-2.44,2.34
		c-0.88,0.77-1.79,1.46-2.74,2.07s-1.93,1.11-2.93,1.49s-1.99,0.57-2.98,0.57c-1.42,0-2.66-0.22-3.7-0.67
		c-1.05-0.45-1.92-1.08-2.61-1.89c-0.7-0.81-1.21-1.77-1.56-2.89s-0.52-2.35-0.52-3.68c0-0.63,0.05-1.33,0.14-2.1
		C661.7,326.99,661.82,326.24,661.96,325.5z"/>
	<path class="st5" d="M703.39,333.95c0.59-2.92,1.26-5.87,2-8.85c0.74-2.98,1.46-5.92,2.17-8.85c0.3-1.21,0.56-2.32,0.79-3.31
		s0.42-1.9,0.57-2.71s0.27-1.54,0.35-2.21c0.08-0.66,0.12-1.27,0.12-1.84c0-0.11,0-0.22,0-0.36c0-0.13-0.01-0.29-0.02-0.49
		c-0.16,0-0.5,0.1-1.04,0.29c-0.54,0.19-1.17,0.45-1.9,0.77s-1.49,0.67-2.3,1.07c-0.8,0.4-1.55,0.8-2.24,1.2
		c-0.55,0.32-1,0.58-1.37,0.79c-0.37,0.21-0.68,0.37-0.95,0.49c-0.27,0.11-0.51,0.19-0.73,0.24s-0.45,0.07-0.68,0.07
		c-0.48,0-0.9-0.21-1.25-0.63c-0.35-0.42-0.53-0.97-0.53-1.64c0-0.39,0.04-0.73,0.11-1.02c0.07-0.29,0.18-0.55,0.33-0.78
		c0.15-0.23,0.35-0.44,0.6-0.65c0.25-0.2,0.55-0.41,0.91-0.62c3.95-2.32,7.95-4.03,12-5.11c4.05-1.08,8.11-1.62,12.19-1.62
		c0.33,0,0.72,0.01,1.17,0.03c0.45,0.02,0.92,0.05,1.39,0.09s0.94,0.11,1.39,0.18s0.85,0.17,1.2,0.28c0.36,0.12,0.67,0.38,0.94,0.77
		c0.27,0.39,0.4,0.8,0.4,1.24c0,0.35-0.03,0.7-0.08,1.03s-0.15,0.62-0.29,0.87c-0.14,0.25-0.32,0.44-0.55,0.59
		c-0.23,0.15-0.5,0.22-0.83,0.22c-0.56-0.07-1.21-0.16-1.93-0.26c-0.73-0.11-1.46-0.16-2.19-0.16c-1.47,0-2.93,0.04-4.39,0.12
		s-2.96,0.31-4.49,0.7c-0.08,0.04-0.13,0.13-0.15,0.28c-0.02,0.15-0.04,0.34-0.06,0.57c-0.05,0.95-0.12,1.79-0.21,2.51
		c-0.09,0.72-0.22,1.44-0.39,2.17s-0.36,1.5-0.6,2.34s-0.51,1.84-0.82,3.01s-0.68,2.57-1.09,4.2s-0.87,3.6-1.37,5.9l-1.12,5.12
		c-0.27,1.18-0.47,2.24-0.62,3.18c-0.15,0.94-0.28,1.87-0.39,2.79c-0.06,0.3-0.3,0.58-0.71,0.85s-0.9,0.4-1.46,0.4
		c-0.33,0-0.62-0.1-0.89-0.3c-0.27-0.2-0.48-0.46-0.66-0.78c-0.17-0.32-0.29-0.66-0.35-1.04S703.3,334.32,703.39,333.95z"/>
	<path class="st5" d="M723.88,332.1c0.53,0.21,1.07,0.46,1.63,0.74s1.13,0.55,1.72,0.81c0.59,0.26,1.21,0.47,1.86,0.65
		s1.34,0.26,2.07,0.26c0.86,0,1.73-0.11,2.6-0.34c0.88-0.23,1.73-0.57,2.57-1.02c0.84-0.45,1.64-0.99,2.4-1.64
		c0.77-0.64,1.47-1.39,2.11-2.23c0.7-0.9,1.29-1.71,1.76-2.44c0.47-0.73,0.85-1.38,1.14-1.95c0.29-0.57,0.5-1.07,0.62-1.48
		c0.12-0.41,0.19-0.77,0.19-1.07c0-0.44-0.13-0.82-0.4-1.15c-0.27-0.33-0.62-0.59-1.07-0.81c-0.45-0.21-0.95-0.37-1.51-0.46
		s-1.15-0.15-1.76-0.15c-0.36,0-0.78,0.01-1.27,0.04s-0.98,0.05-1.48,0.08c-0.5,0.03-0.98,0.05-1.45,0.07s-0.88,0.03-1.22,0.03
		c-0.52,0-1.05-0.07-1.61-0.2c-0.55-0.13-1.1-0.35-1.63-0.65s-1.02-0.7-1.48-1.21s-0.83-1.14-1.12-1.9
		c-0.09-0.25-0.18-0.54-0.26-0.87c-0.08-0.33-0.12-0.7-0.12-1.08c0-0.42,0.03-0.82,0.08-1.2s0.12-0.74,0.2-1.1
		c0.22-0.88,0.58-1.77,1.09-2.68c0.51-0.91,1.12-1.79,1.83-2.65c0.71-0.86,1.48-1.7,2.32-2.51c0.84-0.81,1.7-1.57,2.58-2.28
		s1.75-1.36,2.6-1.93s1.64-1.06,2.38-1.47c1.03-0.56,2.08-0.97,3.15-1.23s2.13-0.38,3.18-0.38c0.62,0,1.22,0.09,1.78,0.28
		c0.56,0.18,1.06,0.45,1.49,0.81s0.77,0.79,1.02,1.31c0.25,0.52,0.38,1.11,0.38,1.78c0,0.39-0.04,0.71-0.12,0.98
		c-0.08,0.26-0.18,0.48-0.3,0.65c-0.12,0.17-0.26,0.29-0.41,0.36c-0.15,0.07-0.3,0.11-0.46,0.11c-0.42,0-0.81-0.05-1.16-0.16
		s-0.69-0.22-1.02-0.36s-0.66-0.26-0.98-0.37c-0.33-0.11-0.69-0.17-1.08-0.17c-1.16,0-2.33,0.26-3.53,0.78s-2.36,1.18-3.49,1.98
		c-1.13,0.8-2.2,1.69-3.21,2.68c-1.01,0.99-1.91,1.95-2.71,2.88c-0.42,0.49-0.73,0.99-0.93,1.48s-0.29,0.96-0.29,1.4
		c0,0.65,0.25,1.16,0.75,1.53c0.5,0.37,1.11,0.55,1.83,0.55c0.42,0,0.9-0.01,1.43-0.03s1.07-0.04,1.63-0.07
		c0.55-0.03,1.09-0.05,1.62-0.08c0.52-0.03,0.99-0.04,1.39-0.04c0.97,0,1.9,0.15,2.79,0.46c0.89,0.31,1.68,0.76,2.37,1.36
		s1.24,1.34,1.65,2.23c0.41,0.89,0.62,1.91,0.62,3.05c0,0.7-0.09,1.42-0.28,2.14s-0.45,1.45-0.77,2.18
		c-0.33,0.73-0.7,1.45-1.12,2.17c-0.42,0.71-0.87,1.41-1.34,2.1c-0.84,1.23-1.79,2.39-2.82,3.49s-2.14,2.04-3.32,2.85
		c-1.17,0.81-2.41,1.45-3.71,1.93s-2.64,0.71-4.02,0.71c-0.59,0-1.2-0.06-1.83-0.18s-1.24-0.3-1.85-0.54
		c-0.61-0.24-1.18-0.54-1.72-0.9c-0.54-0.36-1.01-0.77-1.42-1.23s-0.73-0.96-0.97-1.52c-0.24-0.55-0.36-1.16-0.36-1.81
		c0-0.32,0.04-0.62,0.13-0.91C723.32,332.24,723.54,332.1,723.88,332.1z"/>
</g>
</svg>
