<?xml version="1.0" encoding="utf-8"?>
<!-- Generator: Adobe Illustrator 28.1.0, SVG Export Plug-In . SVG Version: 6.00 Build 0)  -->
<svg version="1.1" id="Layer_1" xmlns="http://www.w3.org/2000/svg" xmlns:xlink="http://www.w3.org/1999/xlink" x="0px" y="0px"
	 viewBox="0 0 1366 768" style="enable-background:new 0 0 1366 768;" xml:space="preserve">
<style type="text/css">
	.st0{fill:#603813;}
	.st1{fill:#8C6239;}
	.st2{fill:#C69C6D;}
	.st3{fill:#00FF00;}
	.st4{fill:#754C24;}
	.st5{fill:#FFFFFF;}
	.st6{fill:#ED1C24;stroke:#FFFFFF;stroke-width:2;stroke-miterlimit:10;}
	.st7{fill:none;stroke:#FFFFFF;stroke-width:2;stroke-miterlimit:10;}
	.st8{fill:#FFFFFF;stroke:#FFFFFF;stroke-width:2;stroke-miterlimit:10;}
	.st9{fill:#FF00FF;stroke:#FFFFFF;stroke-width:2;stroke-miterlimit:10;}
</style>
<g>
	<polygon class="st0" points="473.47,452.43 474.01,272.63 629.99,183.2 785.43,273.56 784.89,453.36 628.91,542.8 	"/>
	<path d="M629.98,184.93l153.95,89.49l-0.53,178.07l-154.48,88.57l-153.95-89.49l0.53-178.07L629.98,184.93 M629.99,181.47
		l-157.48,90.3l-0.54,181.53l156.94,91.24l157.48-90.3l0.54-181.53L629.99,181.47L629.99,181.47z"/>
</g>
<g>
	<polygon class="st1" points="539.52,519.19 449.62,363.48 539.52,207.77 719.33,207.77 809.23,363.48 719.33,519.19 	"/>
	<path d="M540.39,209.27l178.07,0l89.03,154.21l-89.03,154.21l-178.07,0l-89.03-154.21L540.39,209.27 M538.66,206.27l-90.77,157.21
		l90.77,157.21l181.53,0l90.77-157.21l-90.77-157.21L538.66,206.27L538.66,206.27z"/>
</g>
<g>
	<circle class="st2" cx="629.5" cy="367.5" r="157"/>
	<path d="M629.5,212c41.54,0,80.59,16.17,109.96,45.54C768.83,286.91,785,325.96,785,367.5s-16.17,80.59-45.54,109.96
		C710.09,506.83,671.04,523,629.5,523s-80.59-16.17-109.96-45.54C490.17,448.09,474,409.04,474,367.5s16.17-80.59,45.54-109.96
		C548.91,228.17,587.96,212,629.5,212 M629.5,209C541.96,209,471,279.96,471,367.5S541.96,526,629.5,526S788,455.04,788,367.5
		S717.04,209,629.5,209L629.5,209z"/>
</g>
<g>
	<path class="st3" d="M607.66,494.6c-16.96-5.76-34.38-11.78-47.97-23.45c-5.98-5.13-11.05-11.23-15.76-17.54
		c-10.83-14.52-19.91-30.34-26.98-47.02c-0.45-1.05-0.88-2.28-0.34-3.29c0.62-1.16,2.16-1.39,3.48-1.47
		c22.45-1.26,45.13,1.86,66.41,9.13c4.67,1.6,9.33,3.42,13.35,6.27c3.83,2.71,6.96,6.26,10.06,9.78
		c6.63,7.53,13.37,15.23,17.36,24.44c3.99,9.21,4.83,20.36-0.26,29c-3.95,6.7-11.32,11.24-19.08,11.76"/>
	<g>
		<path d="M608.06,493.15c-18.76-6.37-37.99-13.17-52.18-27.63c-7.23-7.37-13.32-15.91-18.94-24.55
			c-5.68-8.73-10.76-17.85-15.19-27.28c-1.12-2.39-2.21-4.8-3.24-7.23c-0.31-0.74-1.12-2.13-0.26-2.75
			c0.79-0.57,2.34-0.41,3.25-0.45c5.42-0.26,10.85-0.27,16.27-0.02c10.94,0.5,21.82,2.03,32.48,4.58
			c5.28,1.26,10.49,2.77,15.63,4.51c4.89,1.66,9.78,3.57,13.93,6.71c4.09,3.1,7.42,7.16,10.78,11c3.28,3.74,6.52,7.53,9.37,11.61
			c5.58,7.97,9.69,17.22,9.02,27.15c-0.62,9.14-6.16,17.31-14.86,20.55c-1.99,0.74-4.07,1.21-6.19,1.37c-1.91,0.14-1.93,3.14,0,3
			c9.45-0.71,18.08-6.63,21.82-15.39c4.02-9.39,2.37-20.22-1.91-29.22c-4.58-9.63-11.97-17.78-19.07-25.63
			c-3.67-4.06-7.67-7.69-12.59-10.19c-4.93-2.51-10.3-4.21-15.59-5.8c-11.12-3.33-22.58-5.54-34.14-6.64
			c-5.79-0.55-11.61-0.82-17.43-0.79c-2.83,0.01-5.66,0.09-8.49,0.25c-2.16,0.12-4.82,0.5-5.54,2.94c-0.69,2.32,1,4.97,1.9,7.01
			c1.16,2.62,2.36,5.23,3.62,7.81c2.41,4.95,5,9.82,7.77,14.58c5.53,9.53,11.74,18.74,18.67,27.31
			c6.81,8.42,14.71,15.56,24.09,21.02c9.11,5.3,19,9.1,28.93,12.57c2.42,0.85,4.85,1.67,7.29,2.5
			C609.09,496.67,609.88,493.77,608.06,493.15L608.06,493.15z"/>
	</g>
</g>
<g>
	<path class="st4" d="M628.14,450.07c-8.22-17.77-4.68-41.07,10.3-53.68c14.98-12.61,40.65-11.01,52.1,4.87
		c3.41,4.73,6.1,10.83,11.69,12.48c2.41,0.71,5.01,0.44,7.43,1.11s4.77,2.95,4.12,5.37c-0.27,1.01-1.01,1.82-1.64,2.67
		c-8.57,11.63,5.19,28.72-0.13,42.15c-1.88,4.76-5.93,8.29-10.08,11.28c-12.26,8.83-27.1,14.63-42.19,14.13
		c-11.95-0.39-24.95-5.99-29.06-17.22"/>
	<g>
		<path d="M629.43,449.31c-7.49-16.36-4.87-37.85,8.49-50.47c12.03-11.35,32.69-12.69,45.84-2.46c3.48,2.71,5.86,6.15,8.25,9.8
			c2.45,3.75,5.3,7.67,9.82,9c2.65,0.78,5.75,0.21,8.26,1.43c0.93,0.46,1.97,1.26,2.24,2.32c0.31,1.24-0.81,2.28-1.48,3.2
			c-2.46,3.36-3.26,7.53-3.06,11.62c0.43,8.75,4.6,17.1,3.92,25.93c-0.38,4.98-3.04,9.01-6.69,12.29
			c-4.09,3.67-8.91,6.66-13.77,9.21c-9.85,5.17-21.01,8.31-32.2,7.75c-8.72-0.44-18.17-3.65-23.81-10.64
			c-1.32-1.63-2.37-3.49-3.11-5.45c-0.67-1.79-3.57-1.02-2.89,0.8c3.46,9.21,12.19,14.8,21.44,17.08
			c10.89,2.68,22.66,0.99,33.04-2.89c5.53-2.07,10.82-4.77,15.76-8c4.72-3.08,9.62-6.6,12.58-11.51c5.18-8.61,1.63-18.74-0.28-27.76
			c-0.88-4.16-1.62-8.63-0.4-12.8c0.28-0.96,0.67-1.88,1.17-2.75c0.66-1.15,1.64-2.11,2.23-3.29c1.21-2.38,0.34-4.99-1.64-6.64
			c-2.27-1.89-5.05-2.05-7.87-2.31c-2.69-0.25-4.9-1.16-6.83-3.07c-3.39-3.36-5.33-7.89-8.44-11.49
			c-11.83-13.68-34.19-15.13-48.96-5.58c-16.63,10.75-22.1,33.3-16.7,51.61c0.67,2.27,1.52,4.47,2.5,6.61
			C627.65,452.58,630.23,451.06,629.43,449.31L629.43,449.31z"/>
	</g>
</g>
<g>
	<g>
		<path d="M630.52,474.14c1.93,0,1.93-3,0-3C628.59,471.14,628.59,474.14,630.52,474.14L630.52,474.14z"/>
	</g>
</g>
<g>
	<path class="st3" d="M625.68,478.33c-1.44-2.92-3.74-5.32-6.03-7.64c-16.13-16.43-34.13-32.71-56.54-37.98"/>
	<g>
		<path d="M626.97,477.58c-2.4-4.72-6.65-8.39-10.36-12.07c-3.66-3.63-7.4-7.18-11.27-10.58c-7.8-6.83-16.22-13.11-25.54-17.71
			c-5.2-2.57-10.65-4.61-16.29-5.95c-1.88-0.45-2.68,2.44-0.8,2.89c19.85,4.73,36.03,18.04,50.29,32.01
			c1.98,1.94,3.94,3.91,5.88,5.89c2.1,2.15,4.12,4.34,5.5,7.04C625.26,480.81,627.84,479.29,626.97,477.58L626.97,477.58z"/>
	</g>
</g>
<g>
	<g>
		<path d="M629.8,452.9c1.93,0,1.93-3,0-3C627.87,449.9,627.87,452.9,629.8,452.9L629.8,452.9z"/>
	</g>
</g>
<g>
	<path class="st4" d="M710.84,416.82c-1.38,2.77-4.77,4.08-7.85,3.84c-3.08-0.24-5.92-1.74-8.54-3.38
		c-5.7-3.56-10.89-7.92-15.38-12.91c-1.09-1.21-2.26-2.54-3.86-2.88c-2.18-0.46-4.32,1.06-6.54,1c-2.96-0.08-5.13-2.84-7.95-3.72
		c-3.26-1.01-6.7,0.63-9.71,2.23c-2.69,1.43-5.41,2.87-7.68,4.9c-1.82,1.63-3.3,3.6-4.77,5.55c-1.04,1.38-2.08,2.77-3.12,4.15
		c-1.59,2.12-3.25,4.4-3.41,7.04c-0.04,0.66,0,1.38-0.36,1.93c-0.43,0.66-1.27,0.88-2,1.19c-2.44,1.06-3.99,3.86-3.6,6.49"/>
	<g>
		<path d="M709.54,416.06c-1.6,2.98-5.29,3.57-8.32,2.78c-3.79-0.99-7.25-3.52-10.37-5.8c-3.19-2.34-6.18-4.97-8.93-7.81
			c-2.46-2.54-4.64-5.82-8.64-5.23c-1.67,0.25-3.39,1.24-5.1,0.94c-1.53-0.27-2.86-1.38-4.15-2.19c-3.42-2.15-6.9-2.12-10.57-0.59
			c-3.56,1.49-7.17,3.45-10.2,5.85c-3.1,2.46-5.35,5.82-7.71,8.95c-1.31,1.74-2.74,3.45-3.76,5.39c-0.47,0.9-0.88,1.87-1.08,2.87
			c-0.16,0.75,0.04,2.21-0.55,2.71c-0.65,0.56-1.73,0.72-2.45,1.24c-0.73,0.53-1.33,1.17-1.84,1.91c-1.04,1.49-1.52,3.37-1.31,5.18
			c0.22,1.89,3.23,1.92,3,0c-0.18-1.54,0.22-3.03,1.33-4.16c1.07-1.09,2.7-1.21,3.72-2.34c1.24-1.36,0.74-3.5,1.4-5.13
			c0.69-1.71,1.89-3.2,2.99-4.66c2.4-3.19,4.65-6.7,7.7-9.31c1.45-1.23,3.09-2.22,4.75-3.14c1.76-0.98,3.55-2,5.43-2.74
			c1.83-0.72,3.86-1.19,5.77-0.46c1.45,0.55,2.67,1.59,4,2.36c1.4,0.81,2.96,1.4,4.61,1.27c1.7-0.13,3.3-1.04,5-1.06
			c1.78-0.03,2.97,1.66,4.05,2.85c1.33,1.46,2.71,2.86,4.15,4.2c2.81,2.62,5.84,5.03,9.03,7.18c3.49,2.36,7.34,4.78,11.67,5.02
			c3.53,0.2,7.26-1.4,8.97-4.6C713.04,415.87,710.46,414.36,709.54,416.06L709.54,416.06z"/>
	</g>
</g>
<g>
	<path class="st4" d="M710.82,418.75c-5.68,2.44-7.65,9.55-7.58,15.73c0.07,6.18,1.45,12.53-0.41,18.42c-0.21,0.68-0.49,1.37-1,1.86
		c-0.57,0.55-1.37,0.78-2.07,1.15c-3.44,1.82-3.95,6.41-5.51,9.98c-1.91,4.38-5.83,7.64-10.13,9.7c-4.31,2.07-9.03,3.08-13.7,4.07
		c-2.51,0.53-5.1,1.07-7.61,0.56c-2.24-0.45-4.28-1.69-6.54-1.94c-2.81-0.31-5.6,0.95-8.43,0.76c-6.15-0.42-10.2-7.38-16.32-8.15"/>
	<g>
		<path d="M710.07,417.46c-6.8,3.06-8.53,11.45-8.29,18.18c0.16,4.69,1.02,9.5,0.25,14.18c-0.17,1.01-0.37,2.07-0.75,3.02
			c-0.42,1.08-1.32,1.27-2.27,1.78c-1.51,0.81-2.65,2.16-3.44,3.67c-1.69,3.21-2.14,6.88-4.33,9.85c-2.47,3.35-6.22,5.64-10.06,7.1
			c-4.37,1.67-9.15,2.77-13.77,3.49c-2.44,0.38-4.56,0.09-6.86-0.76c-2.15-0.8-4.18-1.39-6.5-1.15c-2.34,0.24-4.74,1.11-7.1,0.6
			c-1.8-0.39-3.39-1.37-4.88-2.42c-3.17-2.21-6.18-4.97-10.15-5.55c-0.81-0.12-1.6,0.2-1.85,1.05c-0.2,0.7,0.25,1.73,1.05,1.85
			c3.52,0.51,6.22,2.95,9.02,4.95c3.07,2.19,6.27,3.63,10.12,3.13c2.28-0.3,4.57-1.04,6.86-0.46c2.26,0.57,4.28,1.67,6.63,1.9
			c2.37,0.23,4.76-0.27,7.06-0.76c2.42-0.51,4.83-1.03,7.21-1.69c4.22-1.18,8.33-2.88,11.79-5.61c3.15-2.48,5.31-5.64,6.61-9.42
			c0.59-1.69,1.05-3.46,1.96-5.02c0.39-0.66,0.85-1.27,1.46-1.74c0.79-0.6,1.79-0.84,2.59-1.43c1.68-1.24,2.15-3.63,2.48-5.57
			c0.39-2.34,0.44-4.69,0.34-7.05c-0.32-7.57-2.44-19.57,6.33-23.52C713.34,419.26,711.81,416.67,710.07,417.46L710.07,417.46z"/>
	</g>
</g>
<g>
	<path class="st4" d="M703.58,421.46c-11.25,2.96-23.99-0.64-32.03-9.05c-4.44,3.57-10.58,4.91-16.1,3.51
		c0.14,3.96-4.92,5.59-7.7,8.41c-2.14,2.16-2.99,5.27-4.79,7.72c-3.77,5.16-11.95,6.35-17.04,2.49"/>
	<g>
		<path d="M703.19,420.01c-10.84,2.78-22.79-0.63-30.57-8.66c-0.61-0.63-1.49-0.49-2.12,0c-4.09,3.22-9.61,4.34-14.64,3.12
			c-0.94-0.23-1.9,0.45-1.9,1.45c0,2.74-3.39,4.28-5.28,5.69c-1.34,1-2.5,2.1-3.45,3.49c-1.04,1.54-1.75,3.27-2.69,4.86
			c-3.2,5.46-10.72,7.05-15.85,3.28c-1.56-1.14-3.06,1.46-1.51,2.59c5.85,4.3,14.84,2.82,19.09-3.03c1.25-1.72,2.03-3.72,3.13-5.53
			c0.99-1.63,2.31-2.75,3.85-3.83c2.67-1.88,5.72-3.89,5.71-7.52c-0.63,0.48-1.27,0.96-1.9,1.45c6.17,1.49,12.59,0.02,17.56-3.89
			c-0.71,0-1.41,0-2.12,0c8.52,8.8,21.63,12.48,33.49,9.44C705.85,422.43,705.06,419.53,703.19,420.01L703.19,420.01z"/>
	</g>
</g>
<g>
	<path class="st4" d="M701.69,423.03c-3.22,1.54-4.72,5.31-5.21,8.85c-0.49,3.53-0.27,7.2-1.38,10.59
		c-1.48,4.53-5.11,7.98-8.61,11.22c-1.69,1.57-3.38,3.14-5.08,4.71c-1.22,1.13-2.46,2.28-3.97,2.98c-1.97,0.91-4.2,0.98-6.31,1.49
		c-3.75,0.91-7.11,3.23-10.94,3.67c-7.74,0.89-15.03-6.05-22.64-4.41c-2.35,0.51-5.52,1.46-6.57-0.7"/>
	<g>
		<path d="M700.93,421.74c-5.9,3.02-5.93,10.26-6.45,15.95c-0.32,3.51-1.41,6.55-3.6,9.34c-2.02,2.56-4.51,4.74-6.9,6.95
			c-1.31,1.21-2.61,2.44-3.93,3.64c-1.26,1.16-2.55,2.25-4.21,2.76c-1.52,0.47-3.13,0.6-4.68,0.94c-1.69,0.37-3.28,1.02-4.87,1.69
			c-2.92,1.23-5.79,2.4-9.02,2.02c-2.85-0.33-5.56-1.49-8.22-2.49c-2.98-1.12-6.1-2.23-9.33-2.16c-1.52,0.03-2.96,0.42-4.44,0.71
			c-0.91,0.18-2.46,0.57-3.01-0.41c-0.95-1.68-3.54-0.17-2.59,1.51c1.47,2.6,4.55,2.2,7.04,1.66c2.91-0.63,5.47-0.45,8.32,0.45
			c5.81,1.82,11.37,4.99,17.63,3.27c3.47-0.96,6.56-2.86,10.13-3.51c1.56-0.29,3.15-0.48,4.64-1.06c1.69-0.66,3.09-1.77,4.42-2.97
			c2.73-2.47,5.46-4.96,8.08-7.54c2.3-2.27,4.51-4.78,5.86-7.75c1.73-3.8,1.61-7.88,2.06-11.93c0.36-3.26,1.45-6.88,4.58-8.48
			C704.16,423.45,702.65,420.86,700.93,421.74L700.93,421.74z"/>
	</g>
</g>
<g>
	<path class="st4" d="M629.15,444.13c7.83-0.55,16.65-1.6,21.41-7.85c0.92-1.2,1.67-2.59,2.93-3.43c2.81-1.86,6.67-0.2,9.9-1.16
		c1.64-0.49,3-1.62,4.48-2.47c3.39-1.96,7.39-2.47,11.27-2.94c6.23-0.75,12.45-1.51,18.68-2.26"/>
	<g>
		<path d="M629.15,445.63c8.26-0.58,17.66-1.69,22.93-8.9c0.62-0.85,1.17-1.82,2.02-2.47c0.97-0.76,2.2-0.85,3.39-0.84
			c2.25,0.01,4.53,0.36,6.7-0.41c2.44-0.87,4.37-2.72,6.82-3.59c2.34-0.84,4.81-1.22,7.26-1.52c6.51-0.81,13.03-1.58,19.55-2.37
			c1.89-0.23,1.92-3.23,0-3c-5.74,0.69-11.47,1.39-17.21,2.08c-5.1,0.62-10.17,1.16-14.6,4c-1.02,0.65-2.03,1.38-3.21,1.69
			c-1.21,0.32-2.49,0.22-3.72,0.17c-2.16-0.09-4.45-0.14-6.34,1.09c-1.91,1.24-2.85,3.42-4.4,5.02c-1.38,1.42-3.07,2.5-4.88,3.3
			c-4.45,1.99-9.5,2.42-14.3,2.75C627.24,442.77,627.22,445.77,629.15,445.63L629.15,445.63z"/>
	</g>
</g>
<g>
	<path class="st4" d="M630.24,451.23c5.61-0.7,11.22-1.41,16.84-2.11c1.35-0.17,2.74-0.34,4.05,0.03c1.36,0.39,2.53,1.33,3.9,1.67
		c4.52,1.13,7.98-4.3,12.52-5.35c2.42-0.56,5.27,0.11,7.21-1.45c1.35-1.08,1.82-2.92,2.95-4.22c1.59-1.85,4.19-2.36,6.35-3.48
		c2.01-1.04,3.66-2.64,5.29-4.22c3.16-3.07,6.32-6.14,9.48-9.21"/>
	<g>
		<path d="M630.24,452.73c3.14-0.39,6.27-0.79,9.41-1.18c3.12-0.39,6.33-1.05,9.47-1.11c2.64-0.05,4.61,2.1,7.3,2.04
			c2.07-0.05,3.94-1.08,5.62-2.21c1.72-1.16,3.42-2.61,5.44-3.22c2.33-0.69,4.86-0.09,7.11-1.16c2.36-1.12,2.75-3.55,4.43-5.28
			c1.61-1.67,4.21-2.07,6.18-3.18c2.66-1.5,4.8-3.85,6.97-5.96c2.57-2.5,5.15-5,7.72-7.5c1.39-1.35-0.74-3.47-2.12-2.12
			c-2.22,2.16-4.45,4.32-6.67,6.48c-1.94,1.89-3.82,3.97-6,5.59c-1.99,1.47-4.38,2-6.48,3.25c-0.9,0.53-1.69,1.2-2.32,2.03
			c-0.72,0.94-1.15,2.06-1.85,3.01c-1.47,1.97-4.41,1.37-6.55,1.7c-2.05,0.32-3.85,1.36-5.54,2.52c-1.59,1.09-3.23,2.5-5.14,2.95
			c-2.37,0.56-4.28-1.49-6.56-1.83c-1.61-0.24-3.21,0.04-4.8,0.24c-1.73,0.22-3.47,0.43-5.2,0.65c-3.47,0.43-6.93,0.87-10.4,1.3
			C628.35,449.97,628.33,452.97,630.24,452.73L630.24,452.73z"/>
	</g>
</g>
<g>
	<path class="st5" d="M537.29,258.92c2.54-0.38,5.57-0.67,8.88-0.67c6,0,10.27,1.39,13.1,4.03c2.88,2.64,4.56,6.38,4.56,11.62
		c0,5.28-1.63,9.6-4.66,12.58c-3.02,3.02-8.02,4.66-14.31,4.66c-2.98,0-5.47-0.14-7.58-0.38V258.92z M541.46,287.53
		c1.06,0.19,2.59,0.24,4.22,0.24c8.93,0,13.78-4.99,13.78-13.73c0.05-7.63-4.27-12.48-13.1-12.48c-2.16,0-3.79,0.19-4.9,0.43V287.53
		z"/>
	<path class="st5" d="M569.26,258.92c2.11-0.43,5.14-0.67,8.02-0.67c4.46,0,7.34,0.82,9.36,2.64c1.63,1.44,2.54,3.65,2.54,6.14
		c0,4.27-2.69,7.1-6.1,8.26v0.14c2.5,0.86,3.98,3.17,4.75,6.53c1.06,4.51,1.82,7.63,2.5,8.88h-4.32c-0.53-0.91-1.25-3.7-2.16-7.73
		c-0.96-4.46-2.69-6.14-6.48-6.29h-3.94v14.02h-4.18V258.92z M573.43,273.65h4.27c4.46,0,7.3-2.45,7.3-6.14c0-4.18-3.02-6-7.44-6.05
		c-2.02,0-3.46,0.19-4.13,0.38V273.65z"/>
	<path class="st5" d="M593.93,288.34c0-1.78,1.2-3.02,2.88-3.02s2.83,1.25,2.83,3.02c0,1.73-1.1,3.02-2.88,3.02
		C595.08,291.37,593.93,290.07,593.93,288.34z"/>
	<path class="st5" d="M615.19,290.84v-32.35h4.56l10.37,16.37c2.4,3.79,4.27,7.2,5.81,10.51l0.1-0.05
		c-0.38-4.32-0.48-8.26-0.48-13.3v-13.54h3.94v32.35h-4.22l-10.27-16.42c-2.26-3.6-4.42-7.3-6.05-10.8l-0.14,0.05
		c0.24,4.08,0.34,7.97,0.34,13.35v13.83H615.19z"/>
	<path class="st5" d="M650.95,258.48v19.15c0,7.25,3.22,10.32,7.54,10.32c4.8,0,7.87-3.17,7.87-10.32v-19.15h4.22v18.87
		c0,9.94-5.23,14.02-12.24,14.02c-6.62,0-11.62-3.79-11.62-13.83v-19.06H650.95z"/>
	<path class="st5" d="M683.97,262.04h-9.84v-3.55h23.95v3.55h-9.89v28.8h-4.22V262.04z"/>
	<path class="st5" d="M700.82,285.75c1.87,1.15,4.61,2.11,7.49,2.11c4.27,0,6.77-2.26,6.77-5.52c0-3.02-1.73-4.75-6.1-6.43
		c-5.28-1.87-8.54-4.61-8.54-9.17c0-5.04,4.18-8.78,10.46-8.78c3.31,0,5.71,0.77,7.15,1.58l-1.15,3.41
		c-1.06-0.58-3.22-1.54-6.14-1.54c-4.42,0-6.1,2.64-6.1,4.85c0,3.02,1.97,4.51,6.43,6.24c5.47,2.11,8.26,4.75,8.26,9.5
		c0,4.99-3.7,9.31-11.33,9.31c-3.12,0-6.53-0.91-8.26-2.06L700.82,285.75z"/>
</g>
<path class="st6" d="M602.5,322H629c0,23.04-11.96,42-26.5,42c-14.48,0-26.41-18.8-26.5-41.74L602.5,322z"/>
<line class="st7" x1="603" y1="399" x2="603" y2="364"/>
<ellipse class="st8" cx="602.5" cy="401.5" rx="15.5" ry="1.5"/>
<g>
	<path class="st9" d="M663.86,327.02l19.89-23.12c16.84,14.49,21.72,36.85,10.8,49.54c-10.79,12.54-33.27,11.25-50.1-2.88
		L663.86,327.02z"/>
	<line class="st9" x1="723.68" y1="377.84" x2="694.23" y2="353.82"/>
	
		<ellipse transform="matrix(0.6523 -0.758 0.758 0.6523 -35.8575 682.1944)" class="st9" cx="725.63" cy="380.18" rx="19.5" ry="2"/>
</g>
</svg>
