<?xml version="1.0" encoding="utf-8"?>
<!-- Generator: Adobe Illustrator 28.1.0, SVG Export Plug-In . SVG Version: 6.00 Build 0)  -->
<svg version="1.1" id="Layer_1" xmlns="http://www.w3.org/2000/svg" xmlns:xlink="http://www.w3.org/1999/xlink" x="0px" y="0px"
	 viewBox="0 0 1366 768" style="enable-background:new 0 0 1366 768;" xml:space="preserve">
<style type="text/css">
	.st0{fill:#F7931E;}
	.st1{fill:#42210B;}
	.st2{fill:#C1272D;}
	.st3{fill:#C69C6D;}
	.st4{fill:#FFFFFF;}
	.st5{fill:#FCEE21;}
	.st6{font-family:'InkFree';}
	.st7{font-size:24px;}
	.st8{fill:#00FF00;}
	.st9{font-family:'LucidaSansUnicode';}
</style>
<g>
	<path class="st0" d="M646.5,542.28c-4.96,0-9.6-1.92-13.08-5.39l-139.3-139.3c-7.21-7.21-7.21-18.95,0-26.16l139.3-139.3
		c3.48-3.48,8.12-5.39,13.08-5.39s9.6,1.92,13.08,5.39l139.3,139.3c3.48,3.48,5.39,8.12,5.39,13.08c0,4.96-1.92,9.6-5.39,13.08
		l-139.3,139.3C656.1,540.36,651.46,542.28,646.5,542.28z"/>
	<path class="st1" d="M646.5,228.22c4.56,0,8.83,1.76,12.02,4.95l139.3,139.3c6.63,6.63,6.63,17.41,0,24.04l-139.3,139.3
		c-3.2,3.2-7.46,4.95-12.02,4.95s-8.83-1.76-12.02-4.95l-139.3-139.3c-6.63-6.63-6.63-17.41,0-24.04l139.3-139.3
		C637.67,229.98,641.94,228.22,646.5,228.22 M646.5,225.22c-5.13,0-10.25,1.94-14.14,5.83l-139.3,139.3
		c-7.78,7.78-7.78,20.51,0,28.28l139.3,139.3c3.89,3.89,9.02,5.83,14.14,5.83s10.25-1.94,14.14-5.83l139.3-139.3
		c7.78-7.78,7.78-20.51,0-28.28l-139.3-139.3C656.75,227.17,651.63,225.22,646.5,225.22L646.5,225.22z"/>
</g>
<g>
	<path class="st2" d="M552,497.5c-10.2,0-18.5-8.3-18.5-18.5V282c0-10.2,8.3-18.5,18.5-18.5h197c10.2,0,18.5,8.3,18.5,18.5v197
		c0,10.2-8.3,18.5-18.5,18.5H552z"/>
	<path class="st1" d="M749,265c9.37,0,17,7.63,17,17v197c0,9.37-7.63,17-17,17H552c-9.37,0-17-7.63-17-17V282c0-9.37,7.63-17,17-17
		H749 M749,262H552c-11,0-20,9-20,20v197c0,11,9,20,20,20h197c11,0,20-9,20-20V282C769,271,760,262,749,262L749,262z"/>
</g>
<g>
	<path class="st3" d="M653.51,313.2c0.95-6.57,4.01-12.92,8.99-17.32s11.91-6.68,18.45-5.52c3.35,0.59,6.48,2.03,9.57,3.45
		c4.15,1.91,8.45,3.93,11.41,7.41c1.58,1.86,2.71,4.06,4.29,5.92c1.49,1.77,3.53,3.82,2.72,5.99c-0.52,1.38-2.01,2.09-3.38,2.67
		c-9.68,4.07-19.6,8.2-30.08,8.74c-8.99,0.46-18.1-1.83-25.8-6.5c-0.64-0.39-1.29-0.81-1.72-1.43c-1.25-1.84,0.77-4.78,2.93-4.28"/>
	<g>
		<path d="M654.96,313.6c1.3-8.6,6.15-16.7,14.32-20.29c3.94-1.73,8.43-2.25,12.63-1.21c2.51,0.62,4.88,1.65,7.22,2.72
			c1.99,0.91,3.99,1.82,5.91,2.9c1.94,1.09,3.77,2.34,5.29,3.97c1.58,1.68,2.67,3.73,4.05,5.55c0.96,1.27,3.55,3.34,3.21,5.14
			c-0.32,1.72-3.67,2.5-5,3.06c-9.18,3.83-18.77,7.54-28.85,7.66c-5.25,0.06-10.47-0.83-15.41-2.59c-2.55-0.91-5-2.06-7.33-3.42
			c-0.71-0.41-2.01-0.94-1.9-1.93c0.07-0.6,0.71-1.49,1.4-1.38c1.89,0.31,2.7-2.59,0.8-2.89c-2.15-0.35-4.08,0.8-4.89,2.83
			c-0.94,2.37,0.37,4.29,2.35,5.53c4.69,2.93,10.06,4.94,15.49,5.98c11.53,2.22,22.77-0.45,33.53-4.63c2.74-1.06,5.46-2.2,8.17-3.35
			c2.05-0.87,4.2-2.01,4.59-4.43c0.43-2.63-1.59-4.74-3.15-6.58c-1.75-2.07-2.98-4.52-4.81-6.52c-3.57-3.9-8.69-6.06-13.43-8.16
			c-5.08-2.25-10.16-3.6-15.72-2.62c-11.71,2.06-19.67,12.55-21.38,23.87C651.78,314.69,654.67,315.5,654.96,313.6L654.96,313.6z"/>
	</g>
</g>
<g>
	<path class="st3" d="M654.22,306.42c-8.85-9.84-22.4-15.26-35.6-14.24c-1.21,0.09-2.46,0.25-3.52,0.85
		c-1.35,0.76-2.23,2.12-3.2,3.32c-3.25,4.03-7.98,6.65-11.27,10.65c-3.29,4-4.61,10.61-0.68,13.98c1.44,1.24,3.33,1.8,5.15,2.33
		c5.05,1.47,10.11,2.94,15.16,4.41c5.56,1.62,11.28,3.25,17.05,2.78c6.94-0.56,13.24-4.09,19.28-7.54"/>
	<g>
		<path d="M655.28,305.35c-6.08-6.69-14.22-11.44-23-13.55c-4.45-1.07-9.09-1.5-13.65-1.14c-2.34,0.19-4.41,0.74-6.07,2.49
			c-1.57,1.66-2.84,3.5-4.54,5.05c-3.38,3.07-7.45,5.66-9.84,9.66c-1.9,3.17-2.91,7.4-1.5,10.96c1.86,4.7,7,5.62,11.34,6.88
			c5.3,1.54,10.59,3.18,15.93,4.59c5.81,1.54,11.75,2.4,17.68,1c5.63-1.33,10.75-4.23,15.72-7.07c1.68-0.96,0.17-3.55-1.51-2.59
			c-4.07,2.32-8.19,4.68-12.68,6.11c-4.63,1.48-9.3,1.59-14.06,0.67c-4.95-0.96-9.77-2.56-14.61-3.96
			c-2.37-0.69-4.74-1.38-7.11-2.07c-2.12-0.62-4.63-1.05-6.38-2.49c-2.65-2.18-2.26-6.17-1.03-9c1.61-3.69,4.98-6.19,7.99-8.7
			c1.67-1.39,3.32-2.83,4.73-4.49c1.33-1.58,2.34-3.4,4.5-3.86c1.97-0.42,4.13-0.35,6.13-0.28c2.03,0.07,4.04,0.29,6.03,0.67
			c9.13,1.72,17.54,6.35,23.79,13.23C654.46,308.91,656.57,306.78,655.28,305.35L655.28,305.35z"/>
	</g>
</g>
<g>
	<path class="st4" d="M574.68,377.28c0.54-0.39,1.09-0.63,1.64-0.73s1.15-0.18,1.77-0.24l4.39-17.79c-0.05,0-0.18,0-0.4-0.01
		s-0.46-0.02-0.72-0.05s-0.52-0.08-0.78-0.15s-0.45-0.17-0.58-0.3c-0.06-0.08-0.13-0.19-0.22-0.33s-0.17-0.28-0.25-0.44
		s-0.15-0.32-0.21-0.48s-0.09-0.33-0.09-0.49c0-0.27,0.11-0.5,0.34-0.68s0.51-0.33,0.84-0.44s0.69-0.19,1.08-0.24
		s0.74-0.07,1.05-0.07c1.48,0,2.84,0.04,4.1,0.13s2.44,0.28,3.53,0.57s2.13,0.71,3.09,1.25s1.89,1.26,2.77,2.16
		c0.33,0.34,0.64,0.72,0.94,1.14s0.56,0.88,0.79,1.38s0.41,1.03,0.55,1.6s0.21,1.17,0.21,1.8c0,0.34-0.02,0.7-0.05,1.07
		s-0.08,0.7-0.14,0.97c-0.34,1.36-0.82,2.56-1.43,3.61s-1.33,1.98-2.14,2.79s-1.71,1.52-2.68,2.12s-1.98,1.12-3.02,1.56
		s-2.1,0.83-3.18,1.16s-2.13,0.62-3.15,0.88h0.02c-0.46,0.14-0.95,0.26-1.48,0.37s-1.06,0.19-1.6,0.26s-1.08,0.13-1.61,0.17
		s-1.03,0.06-1.5,0.06c-0.52,0-0.95-0.03-1.3-0.1s-0.64-0.15-0.85-0.26s-0.37-0.24-0.47-0.38s-0.14-0.29-0.14-0.46
		c0-0.23,0.07-0.48,0.2-0.73S574.38,377.5,574.68,377.28z M582.42,372.24c-0.14,0.6-0.29,1.21-0.44,1.85s-0.3,1.25-0.44,1.86
		l0.4-0.09c0.26-0.06,0.61-0.15,1.05-0.26s0.95-0.26,1.52-0.44s1.18-0.39,1.81-0.63s1.3-0.54,2.01-0.89s1.41-0.74,2.1-1.18
		s1.35-0.92,1.99-1.43s1.19-1.07,1.67-1.66s0.86-1.21,1.15-1.86s0.43-1.33,0.43-2.03c0-0.71-0.14-1.39-0.42-2.03
		s-0.66-1.23-1.13-1.78s-1.03-1.03-1.65-1.46s-1.28-0.79-1.96-1.1s-1.37-0.54-2.07-0.69s-1.36-0.24-1.98-0.24
		c-0.88,2.27-1.63,4.58-2.25,6.93S582.99,369.82,582.42,372.24z"/>
	<path class="st4" d="M601.28,377.7c0.67-2.68,1.36-5.33,2.07-7.95s1.41-5.27,2.07-7.95c0.08-0.35,0.16-0.69,0.25-1
		s0.16-0.63,0.23-0.95s0.13-0.64,0.17-0.96s0.06-0.66,0.06-1.01c0-0.27-0.02-0.52-0.05-0.74s-0.05-0.47-0.05-0.76
		c0-0.27,0.04-0.56,0.11-0.86c0.18-0.71,0.42-1.25,0.75-1.6s0.81-0.53,1.47-0.53c0.27,0,0.53,0.03,0.78,0.08s0.5,0.11,0.75,0.18
		c0.27,0.08,0.55,0.15,0.83,0.21s0.58,0.09,0.87,0.09c0.23,0,0.46-0.01,0.69-0.04s0.48-0.05,0.76-0.07s0.63-0.05,1.02-0.07
		s0.89-0.04,1.49-0.04c0.33,0,0.71,0.01,1.16,0.04s0.91,0.08,1.39,0.16s0.97,0.2,1.46,0.36s0.95,0.37,1.38,0.64s0.81,0.6,1.13,0.99
		s0.57,0.86,0.74,1.42c0.08,0.27,0.14,0.52,0.17,0.74s0.04,0.44,0.04,0.65c0,0.71-0.18,1.42-0.54,2.11
		c-0.41,0.79-0.96,1.52-1.66,2.21s-1.51,1.33-2.43,1.94c-0.36,0.25-0.79,0.5-1.27,0.76s-0.95,0.52-1.42,0.76s-0.88,0.46-1.25,0.66
		s-0.62,0.35-0.76,0.46c0.41,0.2,0.82,0.41,1.23,0.62s0.83,0.48,1.26,0.78s0.86,0.67,1.3,1.11s0.9,0.96,1.37,1.59
		s0.97,1.37,1.48,2.22s1.04,1.86,1.59,3.02c0.14,0.28,0.21,0.58,0.21,0.9c0,0.25-0.05,0.49-0.15,0.74s-0.23,0.47-0.4,0.67
		s-0.37,0.36-0.61,0.48s-0.49,0.18-0.76,0.18c-0.41,0-0.75-0.15-1.02-0.46s-0.53-0.7-0.77-1.2s-0.5-1.05-0.76-1.67
		s-0.59-1.25-0.98-1.88c-0.42-0.68-0.89-1.32-1.4-1.93s-1.05-1.14-1.63-1.58s-1.17-0.8-1.78-1.06s-1.22-0.4-1.83-0.4h-0.26
		c-0.36,0-0.69,0.03-0.98,0.1s-0.57,0.12-0.83,0.17c-0.36-0.13-0.63-0.34-0.79-0.63s-0.25-0.62-0.25-0.98v-0.25l-1.41,5.54
		c-0.05,0.18-0.11,0.42-0.19,0.72s-0.18,0.64-0.28,1s-0.21,0.74-0.33,1.14s-0.22,0.77-0.32,1.12s-0.19,0.67-0.26,0.95
		s-0.13,0.49-0.17,0.63c-0.16,0.29-0.37,0.52-0.62,0.69s-0.52,0.25-0.82,0.25c-0.52,0-0.87-0.16-1.07-0.47s-0.3-0.67-0.3-1.08
		c0-0.16,0.01-0.33,0.04-0.5S601.24,377.85,601.28,377.7z M609.91,357.87c-0.07,0.23-0.17,0.57-0.31,1.02s-0.28,0.95-0.45,1.51
		s-0.34,1.17-0.53,1.81s-0.38,1.29-0.56,1.94s-0.37,1.28-0.54,1.89s-0.33,1.15-0.47,1.63c0.23-0.3,0.59-0.58,1.05-0.82
		s1-0.47,1.58-0.68c0.46-0.16,1.02-0.4,1.69-0.69s1.37-0.64,2.1-1.03s1.46-0.81,2.2-1.26s1.39-0.91,1.97-1.39s1.05-0.95,1.42-1.42
		s0.54-0.93,0.54-1.38c0-0.43-0.15-0.78-0.46-1.03s-0.69-0.44-1.14-0.57s-0.96-0.21-1.5-0.25s-1.05-0.06-1.52-0.06
		c-0.84,0-1.69,0.05-2.53,0.16S610.75,357.57,609.91,357.87z"/>
	<path class="st4" d="M633.29,367.38c0,0.81-0.31,1.51-0.93,2.1s-1.33,0.89-2.13,0.89c-0.61,0-1.13-0.21-1.56-0.64
		s-0.64-0.95-0.64-1.56c0-0.81,0.33-1.52,0.98-2.14s1.37-0.92,2.15-0.92c0.61,0,1.12,0.22,1.52,0.65S633.29,366.74,633.29,367.38z"
		/>
	<path class="st4" d="M644.5,358.65c0.07-0.3,0.16-0.63,0.26-0.98s0.25-0.66,0.42-0.95s0.4-0.53,0.69-0.72s0.64-0.29,1.07-0.29
		c0.41,0,0.78,0.11,1.1,0.34s0.61,0.46,0.87,0.69c0.3,0.2,0.6,0.6,0.88,1.21s0.57,1.36,0.87,2.25s0.62,1.9,0.97,3.02
		s0.73,2.3,1.14,3.53s0.88,2.49,1.4,3.77s1.1,2.53,1.76,3.75c0.11,0.19,0.23,0.41,0.37,0.66s0.28,0.49,0.43,0.71s0.28,0.41,0.4,0.56
		s0.21,0.23,0.27,0.23c0.04,0,0.08-0.09,0.12-0.26s0.1-0.39,0.16-0.63s0.12-0.5,0.18-0.76s0.13-0.47,0.18-0.63
		c0.22-0.54,0.47-1.16,0.73-1.85s0.56-1.54,0.88-2.53s0.68-2.17,1.06-3.52s0.81-2.97,1.28-4.83c0.12-0.46,0.24-0.98,0.38-1.56
		s0.26-1.17,0.39-1.78s0.23-1.19,0.33-1.77s0.16-1.07,0.19-1.49c0-0.07,0.01-0.19,0.02-0.37s0.03-0.38,0.06-0.6s0.07-0.45,0.11-0.69
		s0.11-0.46,0.18-0.66s0.17-0.36,0.29-0.49s0.26-0.19,0.42-0.19s0.37,0.02,0.61,0.07s0.46,0.12,0.66,0.21
		c0.22,0.3,0.42,0.67,0.61,1.1s0.27,1,0.27,1.73c0,0.46-0.05,1-0.14,1.64s-0.21,1.32-0.36,2.06s-0.31,1.49-0.49,2.26
		s-0.37,1.51-0.55,2.22s-0.37,1.36-0.54,1.95s-0.31,1.08-0.43,1.47c-0.21,0.68-0.43,1.38-0.66,2.1s-0.48,1.48-0.76,2.27
		s-0.57,1.63-0.9,2.51s-0.68,1.83-1.08,2.84c-0.18,0.46-0.38,0.91-0.61,1.37s-0.49,0.87-0.78,1.24s-0.62,0.67-0.99,0.9
		s-0.78,0.34-1.24,0.34c-0.27,0-0.55-0.04-0.83-0.11s-0.53-0.23-0.73-0.47c-0.96-1.11-1.82-2.38-2.57-3.79s-1.42-2.89-2.01-4.43
		s-1.12-3.1-1.57-4.68s-0.87-3.08-1.25-4.53l-0.11-0.4c-0.05-0.16-0.09-0.33-0.13-0.5s-0.08-0.33-0.12-0.47s-0.09-0.25-0.14-0.34
		s-0.11-0.13-0.18-0.13s-0.16,0.13-0.26,0.39s-0.21,0.55-0.32,0.87s-0.2,0.64-0.29,0.94s-0.14,0.5-0.17,0.58
		c-0.08,0.3-0.21,0.74-0.37,1.31s-0.35,1.21-0.55,1.92s-0.43,1.47-0.67,2.27s-0.47,1.57-0.69,2.31s-0.43,1.43-0.63,2.07
		s-0.36,1.14-0.49,1.53c-0.11,0.3-0.23,0.7-0.39,1.18s-0.3,0.96-0.46,1.45s-0.29,0.93-0.42,1.33s-0.21,0.66-0.25,0.79
		c-0.14,0.45-0.35,0.78-0.62,1.01s-0.55,0.34-0.83,0.34c-0.18,0-0.35-0.06-0.53-0.18s-0.33-0.27-0.47-0.45s-0.25-0.37-0.33-0.57
		s-0.13-0.39-0.13-0.55c0-0.09,0.03-0.24,0.09-0.45s0.15-0.55,0.28-1.05l0.46-1.81L644.5,358.65z"/>
	<path class="st4" d="M669.34,371.46c0.26-1.18,0.54-2.24,0.83-3.17s0.59-1.8,0.89-2.6s0.57-1.57,0.83-2.3s0.5-1.49,0.69-2.28
		l0.21-0.84c0.05-0.21,0.09-0.47,0.12-0.79s0.07-0.65,0.11-0.99s0.1-0.69,0.17-1.03s0.17-0.64,0.31-0.91s0.31-0.49,0.52-0.66
		s0.48-0.25,0.81-0.25c0.36,0,0.67,0.06,0.92,0.19s0.45,0.3,0.61,0.51s0.26,0.45,0.33,0.73s0.11,0.56,0.11,0.85
		c0,0.25-0.01,0.49-0.04,0.74s-0.07,0.47-0.13,0.69c-0.13,0.53-0.34,1.14-0.63,1.85s-0.62,1.48-0.97,2.33s-0.71,1.77-1.07,2.76
		s-0.69,2.04-0.97,3.14c-0.16,0.62-0.31,1.3-0.43,2.04s-0.18,1.41-0.18,2c0,0.48,0.04,0.93,0.12,1.36s0.23,0.8,0.44,1.12
		s0.5,0.58,0.85,0.76s0.81,0.28,1.36,0.28c0.42,0,0.86-0.04,1.31-0.11s0.99-0.24,1.61-0.51c0.91-0.41,1.78-0.94,2.59-1.59
		s1.57-1.39,2.27-2.22s1.34-1.73,1.93-2.69s1.13-1.96,1.61-2.99s0.91-2.07,1.27-3.13s0.68-2.09,0.94-3.11
		c0.11-0.43,0.19-0.84,0.25-1.22s0.1-0.77,0.13-1.17s0.05-0.83,0.07-1.28s0.05-0.98,0.1-1.56c0.04-0.47,0.17-0.88,0.4-1.22
		s0.58-0.52,1.05-0.52c0.29,0,0.55,0.12,0.76,0.35s0.4,0.52,0.54,0.87s0.25,0.71,0.32,1.1s0.11,0.73,0.11,1.04
		c0,0.59-0.06,1.22-0.18,1.9s-0.26,1.33-0.42,1.95c-0.34,1.35-0.75,2.7-1.22,4.06s-1.04,2.69-1.7,3.99s-1.42,2.56-2.29,3.79
		s-1.88,2.37-3.01,3.44c-0.56,0.53-1.17,1.05-1.83,1.56s-1.34,0.97-2.06,1.38s-1.45,0.74-2.2,0.99s-1.49,0.38-2.23,0.38
		c-1.07,0-1.99-0.15-2.78-0.45s-1.44-0.72-1.96-1.26s-0.91-1.18-1.17-1.92s-0.39-1.56-0.39-2.45c0-0.42,0.04-0.89,0.11-1.4
		S669.23,371.95,669.34,371.46z"/>
	<path class="st4" d="M700.42,377.09c0.45-1.95,0.95-3.91,1.5-5.89s1.1-3.94,1.63-5.89c0.22-0.81,0.42-1.54,0.59-2.21
		s0.31-1.26,0.43-1.8s0.21-1.03,0.26-1.47s0.09-0.85,0.09-1.22c0-0.07,0-0.15,0-0.24s-0.01-0.2-0.02-0.33
		c-0.12,0-0.38,0.06-0.78,0.19s-0.88,0.3-1.42,0.51s-1.12,0.45-1.72,0.71s-1.16,0.53-1.68,0.8c-0.41,0.21-0.75,0.39-1.03,0.53
		s-0.51,0.25-0.71,0.33s-0.38,0.13-0.54,0.16s-0.33,0.04-0.51,0.04c-0.36,0-0.68-0.14-0.94-0.42s-0.4-0.64-0.4-1.09
		c0-0.26,0.03-0.48,0.08-0.68s0.13-0.37,0.25-0.52s0.26-0.3,0.45-0.43s0.42-0.27,0.69-0.41c2.96-1.55,5.96-2.68,9-3.4
		s6.08-1.08,9.14-1.08c0.25,0,0.54,0.01,0.88,0.02s0.69,0.03,1.05,0.06s0.71,0.07,1.05,0.12s0.64,0.11,0.9,0.18
		c0.27,0.08,0.5,0.25,0.7,0.51s0.3,0.53,0.3,0.83c0,0.23-0.02,0.46-0.06,0.69s-0.11,0.42-0.22,0.58s-0.24,0.3-0.41,0.4
		s-0.38,0.15-0.62,0.15c-0.42-0.05-0.91-0.11-1.45-0.18s-1.09-0.11-1.64-0.11c-1.1,0-2.2,0.03-3.3,0.08s-2.22,0.21-3.37,0.47
		c-0.06,0.02-0.1,0.08-0.11,0.18s-0.03,0.23-0.04,0.38c-0.04,0.63-0.09,1.19-0.16,1.67s-0.17,0.96-0.29,1.44s-0.27,1-0.45,1.56
		s-0.38,1.22-0.62,2s-0.51,1.71-0.82,2.79s-0.65,2.39-1.03,3.93l-0.84,3.41c-0.2,0.79-0.35,1.49-0.47,2.12s-0.21,1.25-0.29,1.85
		c-0.05,0.2-0.23,0.39-0.54,0.56s-0.68,0.26-1.1,0.26c-0.25,0-0.47-0.07-0.67-0.2s-0.36-0.31-0.49-0.52s-0.22-0.44-0.26-0.69
		S700.35,377.33,700.42,377.09z"/>
	<path class="st4" d="M715.78,375.86c0.4,0.14,0.81,0.3,1.22,0.49s0.85,0.37,1.29,0.54s0.91,0.31,1.4,0.43s1,0.18,1.56,0.18
		c0.64,0,1.29-0.08,1.95-0.23s1.3-0.38,1.92-0.68s1.23-0.66,1.8-1.09s1.1-0.92,1.58-1.49c0.53-0.6,0.97-1.14,1.32-1.63
		s0.64-0.92,0.85-1.3s0.37-0.71,0.47-0.98s0.14-0.51,0.14-0.71c0-0.29-0.1-0.55-0.3-0.76s-0.47-0.4-0.8-0.54s-0.71-0.24-1.13-0.31
		s-0.86-0.1-1.32-0.1c-0.27,0-0.59,0.01-0.95,0.03s-0.73,0.04-1.11,0.05s-0.74,0.03-1.09,0.04s-0.66,0.02-0.91,0.02
		c-0.39,0-0.79-0.04-1.2-0.13s-0.82-0.23-1.22-0.43s-0.77-0.47-1.11-0.81s-0.62-0.76-0.84-1.27c-0.07-0.16-0.13-0.36-0.19-0.58
		s-0.09-0.46-0.09-0.72c0-0.28,0.02-0.55,0.06-0.8s0.09-0.5,0.15-0.73c0.16-0.59,0.44-1.18,0.82-1.78s0.84-1.19,1.37-1.77
		s1.11-1.13,1.74-1.67s1.27-1.05,1.93-1.52s1.31-0.9,1.95-1.28s1.23-0.71,1.78-0.98c0.77-0.38,1.56-0.65,2.36-0.82
		s1.6-0.25,2.38-0.25c0.47,0,0.91,0.06,1.34,0.18s0.79,0.3,1.12,0.54s0.58,0.52,0.76,0.87s0.28,0.74,0.28,1.19
		c0,0.26-0.03,0.47-0.09,0.65s-0.13,0.32-0.23,0.43s-0.2,0.19-0.31,0.24s-0.23,0.07-0.34,0.07c-0.32,0-0.61-0.04-0.87-0.11
		s-0.52-0.15-0.76-0.24s-0.49-0.17-0.74-0.25s-0.52-0.11-0.81-0.11c-0.87,0-1.75,0.17-2.65,0.52s-1.77,0.79-2.62,1.32
		s-1.65,1.13-2.41,1.78s-1.43,1.29-2.03,1.92c-0.32,0.33-0.55,0.66-0.69,0.98s-0.22,0.64-0.22,0.93c0,0.43,0.19,0.77,0.56,1.02
		s0.83,0.37,1.37,0.37c0.32,0,0.67-0.01,1.07-0.02s0.81-0.03,1.22-0.04s0.82-0.04,1.21-0.05s0.74-0.03,1.05-0.03
		c0.73,0,1.42,0.1,2.09,0.31s1.26,0.51,1.78,0.91s0.93,0.89,1.24,1.49s0.47,1.27,0.47,2.03c0,0.47-0.07,0.94-0.21,1.42
		s-0.33,0.96-0.58,1.45s-0.53,0.97-0.84,1.44s-0.65,0.94-1,1.4c-0.63,0.82-1.34,1.59-2.12,2.32s-1.61,1.36-2.49,1.9
		s-1.81,0.97-2.79,1.28s-1.98,0.47-3.01,0.47c-0.45,0-0.9-0.04-1.37-0.12s-0.93-0.2-1.39-0.36s-0.89-0.36-1.29-0.6
		s-0.76-0.51-1.06-0.82s-0.55-0.64-0.73-1.01s-0.27-0.77-0.27-1.2c0-0.21,0.03-0.41,0.1-0.61S715.52,375.86,715.78,375.86z"/>
</g>
<text transform="matrix(1 0 0 1 589.2002 412.5195)" class="st5 st6 st7">Alcohol Free</text>
<text transform="matrix(1 0 0 1 584.6401 446.2803)" class="st8 st9 st7">Give it a go!</text>
</svg>
