<?xml version="1.0" encoding="utf-8"?>
<!-- Generator: Adobe Illustrator 28.1.0, SVG Export Plug-In . SVG Version: 6.00 Build 0)  -->
<svg version="1.1" id="Layer_1" xmlns="http://www.w3.org/2000/svg" xmlns:xlink="http://www.w3.org/1999/xlink" x="0px" y="0px"
	 viewBox="0 0 1366 768" style="enable-background:new 0 0 1366 768;" xml:space="preserve">
<style type="text/css">
	.st0{fill:#C69C6D;}
	.st1{fill:none;stroke:#ED1E79;stroke-width:5;stroke-miterlimit:10;}
	.st2{fill:#FFFF00;stroke:#ED1E79;stroke-width:5;stroke-miterlimit:10;}
	.st3{fill:#FFFF00;}
	.st4{fill:none;stroke:#ED1E79;stroke-width:3;stroke-miterlimit:10;}
	.st5{fill:#754C24;stroke:#000000;stroke-width:3;stroke-miterlimit:10;}
	.st6{fill:none;stroke:#000000;stroke-miterlimit:10;}
	.st7{opacity:0.96;fill:#0000FF;}
	.st8{fill:#00FF00;}
	.st9{fill:#006837;}
	.st10{font-family:'MyriadPro-Regular';}
	.st11{font-size:21px;}
</style>
<g>
	<path class="st0" d="M460,367.5c-10.2,0-18.5-8.3-18.5-18.5v-47c0-10.2,8.3-18.5,18.5-18.5h331c10.2,0,18.5,8.3,18.5,18.5v47
		c0,10.2-8.3,18.5-18.5,18.5H460z"/>
	<path d="M791,285c9.37,0,17,7.63,17,17v47c0,9.37-7.63,17-17,17H460c-9.37,0-17-7.63-17-17v-47c0-9.37,7.63-17,17-17H791 M791,282
		H460c-11,0-20,9-20,20v47c0,11,9,20,20,20h331c11,0,20-9,20-20v-47C811,291,802,282,791,282L791,282z"/>
</g>
<g>
	<line class="st1" x1="480.5" y1="369" x2="480.5" y2="401.5"/>
</g>
<line class="st2" x1="480.5" y1="283" x2="480.5" y2="249.5"/>
<line class="st1" x1="769.5" y1="368.5" x2="769.5" y2="402.5"/>
<g>
	<line class="st3" x1="769.5" y1="282.5" x2="769.5" y2="249.5"/>
	<line class="st1" x1="769.5" y1="282.5" x2="769.5" y2="249.5"/>
</g>
<line class="st4" x1="769.5" y1="390.5" x2="769.5" y2="400.5"/>
<ellipse class="st5" cx="621" cy="202" rx="45.5" ry="40.5"/>
<line class="st2" x1="479.5" y1="252.5" x2="580.5" y2="220.5"/>
<g>
	<line class="st3" x1="770.5" y1="252.5" x2="661.5" y2="221.5"/>
	<line class="st1" x1="770.5" y1="252.5" x2="661.5" y2="221.5"/>
</g>
<line class="st1" x1="479.5" y1="398.5" x2="620.5" y2="437.5"/>
<line class="st1" x1="770.5" y1="399.5" x2="619.5" y2="437.5"/>
<line class="st6" x1="620.5" y1="202.5" x2="620.5" y2="202.5"/>
<g>
	<path class="st7" d="M509.52,302.18c3.33-0.48,7.29-0.84,11.63-0.84c7.86,0,13.46,1.74,17.16,5.04c3.77,3.3,5.97,7.98,5.97,14.52
		c0,6.6-2.14,12-6.1,15.72c-3.96,3.78-10.5,5.82-18.74,5.82c-3.9,0-7.17-0.18-9.93-0.48V302.18z M514.99,337.94
		c1.38,0.24,3.4,0.3,5.53,0.3c11.69,0,18.04-6.24,18.04-17.16c0.06-9.54-5.6-15.6-17.16-15.6c-2.83,0-4.97,0.24-6.41,0.54V337.94z"
		/>
	<path class="st7" d="M551.39,302.18c2.77-0.54,6.73-0.84,10.5-0.84c5.85,0,9.62,1.02,12.26,3.3c2.14,1.8,3.33,4.56,3.33,7.68
		c0,5.34-3.52,8.88-7.99,10.32v0.18c3.27,1.08,5.22,3.96,6.22,8.16c1.38,5.64,2.39,9.54,3.27,11.1h-5.66
		c-0.69-1.14-1.63-4.62-2.83-9.66c-1.26-5.58-3.52-7.68-8.49-7.86h-5.16v17.52h-5.47V302.18z M556.86,320.6h5.6
		c5.85,0,9.56-3.06,9.56-7.68c0-5.22-3.96-7.5-9.75-7.56c-2.64,0-4.53,0.24-5.41,0.48V320.6z"/>
	<path class="st7" d="M583.71,338.96c0-2.22,1.57-3.78,3.77-3.78c2.2,0,3.71,1.56,3.71,3.78c0,2.16-1.45,3.78-3.77,3.78
		C585.22,342.74,583.71,341.12,583.71,338.96z"/>
	<path class="st7" d="M611.56,342.08v-40.44h5.97l13.58,20.46c3.14,4.74,5.6,9,7.61,13.14l0.13-0.06c-0.5-5.4-0.63-10.32-0.63-16.62
		v-16.92h5.16v40.44h-5.53l-13.45-20.52c-2.95-4.5-5.78-9.12-7.92-13.5l-0.19,0.06c0.31,5.1,0.44,9.96,0.44,16.68v17.28H611.56z"/>
	<path class="st7" d="M658.4,301.64v23.94c0,9.06,4.21,12.9,9.87,12.9c6.29,0,10.31-3.96,10.31-12.9v-23.94h5.53v23.58
		c0,12.42-6.85,17.52-16.03,17.52c-8.68,0-15.21-4.74-15.21-17.28v-23.82H658.4z"/>
	<path class="st7" d="M701.66,306.08h-12.89v-4.44h31.37v4.44h-12.95v36h-5.53V306.08z"/>
	<path class="st7" d="M723.73,335.72c2.45,1.44,6.04,2.64,9.81,2.64c5.6,0,8.87-2.82,8.87-6.9c0-3.78-2.26-5.94-7.99-8.04
		c-6.92-2.34-11.19-5.76-11.19-11.46c0-6.3,5.47-10.98,13.71-10.98c4.34,0,7.48,0.96,9.37,1.98l-1.51,4.26
		c-1.38-0.72-4.21-1.92-8.05-1.92c-5.79,0-7.99,3.3-7.99,6.06c0,3.78,2.58,5.64,8.43,7.8c7.17,2.64,10.81,5.94,10.81,11.88
		c0,6.24-4.84,11.64-14.84,11.64c-4.09,0-8.55-1.14-10.81-2.58L723.73,335.72z"/>
</g>
<g>
	<path class="st0" d="M617.92,227.52c-3.67-0.36-7.52,0.27-10.97-1.04c-4.79-1.82-7.52-6.89-8.96-11.81
		c-0.84-2.87-1.39-5.81-1.95-8.74c-1.42-7.54-2.83-15.08-4.25-22.62c3.88,0.05,7.8,0.12,11.56,1.05c5.86,1.45,11.18,5.03,14.72,9.92
		c6.78,9.36,6.35,22.92,0.1,32.65"/>
	<g>
		<path d="M617.92,226.02c-4.4-0.39-9.28,0.57-12.99-2.4c-3.13-2.51-4.73-6.49-5.75-10.25c-1.34-4.93-2.1-10.04-3.04-15.06
			c-0.96-5.13-1.93-10.27-2.89-15.4c-0.48,0.63-0.96,1.27-1.45,1.9c4.53,0.06,9.1,0.16,13.43,1.67c3.72,1.3,7.1,3.55,9.79,6.43
			c5.27,5.64,7.24,13.61,6.26,21.17c-0.56,4.3-2.08,8.43-4.39,12.09c-1.04,1.64,1.56,3.14,2.59,1.51c4.5-7.11,6.13-15.98,4.3-24.2
			c-1.88-8.48-7.77-15.65-15.75-19.1c-5.16-2.23-10.68-2.49-16.24-2.57c-1.04-0.01-1.62,0.97-1.45,1.9
			c1.62,8.62,3.13,17.27,4.87,25.86c1.31,6.49,3.45,14.35,9.82,17.68c4.02,2.11,8.53,1.38,12.88,1.76
			C619.84,229.19,619.83,226.18,617.92,226.02L617.92,226.02z"/>
	</g>
</g>
<g>
	<path class="st0" d="M637.71,184.28c-0.14,6.48-0.67,12.94-1.59,19.35c1.13-1.4,2.65-2.43,4.14-3.44c3.9-2.64,7.93-5.33,12.55-6.22
		"/>
	<g>
		<path d="M636.21,184.28c-0.14,6.34-0.64,12.67-1.53,18.95c-0.1,0.68,0.07,1.32,0.69,1.69c0.54,0.32,1.4,0.27,1.82-0.23
			c1.98-2.36,4.91-4.01,7.51-5.62c2.66-1.65,5.44-3.04,8.52-3.66c1.89-0.38,1.09-3.27-0.8-2.89c-3.32,0.67-6.38,2.19-9.24,3.96
			c-2.79,1.73-5.98,3.54-8.11,6.09c0.84,0.49,1.67,0.97,2.51,1.46c0.93-6.55,1.49-13.14,1.64-19.75
			C639.25,182.35,636.25,182.35,636.21,184.28L636.21,184.28z"/>
	</g>
</g>
<g>
	<path class="st0" d="M653.5,194.17c-0.63,3.81-1.46,7.58-2.48,11.3c-0.69,2.49-1.47,4.99-2.84,7.18c-2.4,3.84-6.45,6.44-10.74,7.88
		c-4.3,1.43-8.87,1.8-13.4,1.97c-0.37,0.01-0.79,0.01-1.07-0.23c-0.34-0.3-0.34-0.82-0.32-1.27c0.26-4.78,0.53-9.56,0.79-14.34
		c0.13-2.41,0.27-4.83,0.85-7.17c1.64-6.6,6.72-11.94,12.6-15.35"/>
	<g>
		<path d="M652.06,193.77c-0.52,3.09-1.15,6.17-1.93,9.21c-0.69,2.71-1.38,5.51-2.71,7.99c-2.48,4.62-7.24,7.34-12.18,8.65
			c-2.9,0.77-5.88,1.09-8.86,1.27c-0.75,0.04-1.59,0.16-2.34,0.11c0.2,0.01-0.03,0.92,0.11,0c0.05-0.31,0.04-0.67,0.05-0.99
			c0.09-1.65,0.18-3.3,0.27-4.95c0.18-3.2,0.34-6.41,0.54-9.61c0.17-2.81,0.51-5.61,1.6-8.23c2.12-5.1,6.36-9.04,11.04-11.79
			c1.66-0.98,0.16-3.57-1.51-2.59c-4.76,2.79-9.06,6.71-11.57,11.68c-3.02,5.99-2.67,13.02-3.04,19.55c-0.1,1.81-0.2,3.63-0.3,5.44
			c-0.08,1.42-0.36,3.11,0.98,4.05c1.19,0.84,3.29,0.38,4.64,0.3c1.7-0.11,3.39-0.28,5.07-0.52c5.91-0.86,11.97-3.11,15.95-7.76
			c2.3-2.68,3.54-5.93,4.49-9.29c1.09-3.85,1.94-7.77,2.6-11.72C655.27,192.68,652.38,191.87,652.06,193.77L652.06,193.77z"/>
	</g>
</g>
<g>
	<path class="st8" d="M637.7,186.96c1.69-1.05,3.41-2.04,5.16-2.99c0.76-0.41,1.52-0.81,2.32-1.11c1.37-0.51,2.85-0.73,4.31-0.64
		c-0.45,0.74-0.04,1.68,0.25,2.5c1.04,2.94,0.47,6.17-0.12,9.23"/>
	<g>
		<path d="M638.08,187.6c1.81-1.12,3.65-2.19,5.53-3.19c1.86-0.98,3.75-1.55,5.87-1.44c-0.22-0.38-0.43-0.75-0.65-1.13
			c-0.46,0.9-0.29,1.77,0.03,2.69c0.35,0.99,0.6,1.97,0.67,3.03c0.13,2.09-0.26,4.15-0.65,6.19c-0.18,0.94,1.26,1.35,1.45,0.4
			c0.38-1.96,0.75-3.95,0.72-5.95c-0.01-0.96-0.12-1.93-0.35-2.86c-0.19-0.76-0.96-1.98-0.57-2.75c0.27-0.52-0.06-1.1-0.65-1.13
			c-2.21-0.12-4.29,0.44-6.25,1.45c-2.02,1.03-3.98,2.2-5.91,3.39C636.51,186.82,637.26,188.11,638.08,187.6L638.08,187.6z"/>
	</g>
</g>
<g>
	<g>
		<path d="M617.23,226.41c0.23-4.84-3.04-8.88-4.25-13.39c-0.65-2.43-1.27-4.72-2.59-6.89c-1.42-2.33-2.95-4.59-4.43-6.88
			c-0.52-0.81-1.82-0.06-1.3,0.76c1.36,2.11,2.74,4.2,4.08,6.32c1.42,2.25,2.1,4.55,2.79,7.1c1.17,4.35,4.42,8.35,4.2,12.99
			C615.68,227.37,617.18,227.37,617.23,226.41L617.23,226.41z"/>
	</g>
</g>
<g>
	<path class="st0" d="M637.24,183.45c0.13,5.81-0.07,11.63-0.6,17.41c4.3-3.34,9.3-5.76,14.59-7.05c0.46-0.11,1.05-0.17,1.32,0.22
		c0.29,0.41,0.15,1.23,0.66,1.25"/>
	<g>
		<path d="M636.49,183.45c0.12,5.81-0.08,11.62-0.6,17.41c-0.05,0.53,0.69,0.99,1.13,0.65c2.69-2.07,5.63-3.82,8.76-5.12
			c1.55-0.65,3.15-1.19,4.77-1.63c0.33-0.09,0.73-0.26,1.08-0.27c0.36-0.01,0.33,0.1,0.41,0.42c0.15,0.53,0.39,0.95,0.95,1.09
			c0.94,0.22,1.34-1.23,0.4-1.45c0.2,0.05,0.13,0.2,0.07-0.13c-0.02-0.12-0.06-0.24-0.09-0.36c-0.09-0.27-0.22-0.52-0.44-0.71
			c-0.5-0.44-1.19-0.41-1.81-0.29c-1.8,0.36-3.58,1-5.28,1.68c-3.44,1.38-6.66,3.21-9.59,5.47c0.38,0.22,0.75,0.43,1.13,0.65
			c0.52-5.79,0.73-11.6,0.6-17.41C637.97,182.49,636.47,182.49,636.49,183.45L636.49,183.45z"/>
	</g>
</g>
<g>
	<path class="st8" d="M640.75,184.96c-0.66,0-1.38,0.02-1.88,0.44c-0.52,0.43-0.67,1.16-0.78,1.82c-0.4,2.35-0.81,4.7-1.21,7.05
		c-0.37,2.14-0.74,4.31-0.58,6.48c0.01,0.15,0.03,0.3,0.13,0.41c0.2,0.21,0.55,0.08,0.79-0.07c3.96-2.27,7.78-4.79,11.43-7.53
		c0.72-0.54,1.5-1.2,1.54-2.1"/>
	<g>
		<path d="M640.75,184.21c-1.07,0.01-2.2,0.17-2.83,1.14c-0.62,0.95-0.67,2.27-0.85,3.36c-0.48,2.77-1.03,5.54-1.38,8.33
			c-0.16,1.25-0.41,2.78-0.11,4.02c0.31,1.3,1.54,0.95,2.41,0.45c2.41-1.4,4.78-2.89,7.08-4.46c1.26-0.86,2.5-1.74,3.72-2.65
			c1.05-0.79,1.99-1.56,2.16-2.93c0.12-0.96-1.38-0.95-1.5,0c-0.08,0.63-0.7,1.09-1.17,1.45c-0.56,0.44-1.14,0.85-1.72,1.26
			c-1.07,0.77-2.15,1.52-3.25,2.26c-1.1,0.73-2.21,1.45-3.33,2.14c-0.6,0.37-1.21,0.74-1.82,1.1c-0.26,0.16-0.52,0.31-0.79,0.46
			c-0.18,0.1-0.35,0.2-0.53,0.3c0.18,0.06,0.24,0,0.18-0.16c0.11-0.24-0.01-0.81,0-1.08c0.01-0.31,0.03-0.62,0.05-0.93
			c0.06-0.76,0.16-1.52,0.28-2.27c0.21-1.33,0.45-2.66,0.68-3.99c0.23-1.33,0.46-2.66,0.68-3.99c0.09-0.54,0.13-1.26,0.4-1.74
			c0.35-0.6,1.02-0.58,1.65-0.58C641.72,185.71,641.72,184.21,640.75,184.21L640.75,184.21z"/>
	</g>
</g>
<g>
	<g>
		<path d="M637.47,184.09c-0.03,0.12-0.06,0.24-0.09,0.36c-0.03,0.1-0.04,0.2-0.01,0.3c0,0.1,0.03,0.19,0.09,0.28
			c0.05,0.09,0.11,0.16,0.19,0.21c0.07,0.07,0.16,0.11,0.26,0.13c0.07,0.01,0.13,0.02,0.2,0.03c0.14,0,0.26-0.03,0.38-0.1
			c0.05-0.04,0.1-0.08,0.15-0.12c0.09-0.09,0.16-0.2,0.19-0.33c0.03-0.12,0.06-0.24,0.09-0.36c0.03-0.1,0.04-0.2,0.01-0.3
			c0-0.1-0.03-0.19-0.09-0.28c-0.05-0.09-0.11-0.16-0.19-0.21c-0.07-0.07-0.16-0.11-0.26-0.13c-0.07-0.01-0.13-0.02-0.2-0.03
			c-0.14,0-0.26,0.03-0.38,0.1c-0.05,0.04-0.1,0.08-0.15,0.12C637.57,183.85,637.5,183.96,637.47,184.09L637.47,184.09z"/>
	</g>
</g>
<g>
	<g>
		<path d="M649.28,194.15c0.16-0.09,0.32-0.17,0.49-0.25c0.08-0.04,0.08-0.04,0.01-0.01c0.04-0.02,0.08-0.03,0.13-0.05
			c0.09-0.03,0.17-0.06,0.26-0.09c0.33-0.11,0.66-0.19,1-0.24c0.09-0.01,0.09-0.01,0,0c0.05-0.01,0.09-0.01,0.14-0.01
			c0.09-0.01,0.18-0.02,0.27-0.02c0.05,0,0.36-0.03,0.37,0.01c-0.11-0.02-0.13-0.02-0.05-0.01c0.03,0.01,0.07,0.01,0.1,0.02
			c0.03,0.01,0.06,0.02,0.1,0.03c0.08,0.03,0.06,0.02-0.04-0.02c0.03,0.01,0.06,0.03,0.08,0.05c-0.09-0.07-0.1-0.08-0.04-0.03
			c0.05,0.06,0.04,0.04-0.03-0.04c0.02,0.03,0.03,0.06,0.04,0.09c0.17,0.36,0.71,0.47,1.03,0.27c0.37-0.24,0.45-0.64,0.27-1.03
			c-0.39-0.83-1.45-0.89-2.23-0.8c-0.94,0.11-1.82,0.39-2.65,0.85c-0.34,0.19-0.49,0.69-0.27,1.03
			C648.48,194.23,648.92,194.36,649.28,194.15L649.28,194.15z"/>
	</g>
</g>
<text transform="matrix(1 0 0 1 531.3599 395.6802)" class="st9 st10 st11">Organic</text>
<text transform="matrix(1 0 0 1 606.9199 395.7998)" class="st9 st10 st11">Energy Drink</text>
</svg>
