<?xml version="1.0" encoding="utf-8"?>
<!-- Generator: Adobe Illustrator 28.1.0, SVG Export Plug-In . SVG Version: 6.00 Build 0)  -->
<svg version="1.1" id="Layer_1" xmlns="http://www.w3.org/2000/svg" xmlns:xlink="http://www.w3.org/1999/xlink" x="0px" y="0px"
	 viewBox="0 0 1366 768" style="enable-background:new 0 0 1366 768;" xml:space="preserve">
<style type="text/css">
	.st0{fill:#FFFFFF;}
	.st1{fill:#F15A24;}
	.st2{fill:#D9E021;}
	.st3{fill:none;}
	.st4{font-family:'TimesNewRomanPSMT';}
	.st5{font-size:60px;}
	.st6{fill:#C1272D;}
	.st7{fill:#C1272D;stroke:#000000;stroke-width:3;stroke-miterlimit:10;}
	.st8{fill:#0000FF;}
	.st9{fill:#0000FF;stroke:#000000;stroke-width:3;stroke-miterlimit:10;}
	.st10{fill:#00FF00;}
	.st11{fill:#00FF00;stroke:#000000;stroke-width:3;stroke-miterlimit:10;}
</style>
<g>
	<ellipse class="st0" cx="662.25" cy="393" rx="81.25" ry="73.5"/>
	<path d="M662.25,320c44.53,0,80.75,32.75,80.75,73s-36.22,73-80.75,73s-80.75-32.75-80.75-73S617.72,320,662.25,320 M662.25,319
		c-45.15,0-81.75,33.13-81.75,74s36.6,74,81.75,74S744,433.87,744,393S707.4,319,662.25,319L662.25,319z"/>
</g>
<g>
	<path class="st1" d="M747.06,570.4c0.01-0.46,0.02-0.92,0.02-1.38c0-30.63-19.18-55.54-42.76-55.54c-11.3,0-21.95,5.67-29.99,15.96
		c-7.89,10.09-12.4,23.52-12.73,37.86c-15.53-3.96-30.59-9.77-44.78-17.29c12.66-23.64,9.53-52.62-7.51-69.08
		c-8.22-7.94-18.58-12.14-29.95-12.14c-13.18,0-26.08,5.65-36.38,15.91c-8.3-11.75-15.47-24.4-21.33-37.61
		c22.4-10.95,34.55-34.87,28.92-57.08c-4.98-19.62-22.77-32.8-44.27-32.8c-1.25,0-2.52,0.05-3.78,0.14l0-0.24
		c-0.01-0.36-0.01-0.71-0.01-1.07c0-11.92,0.95-23.95,2.83-35.75c5.35,1.8,10.81,2.71,16.23,2.71c17.11,0,31.44-8.81,38.34-23.57
		c10.14-21.71,0.62-50.18-21.67-65.04c7.07-10.89,15.16-21.18,24.05-30.62c10.21,15.1,25.32,24.1,40.55,24.1
		c7.57,0,14.8-2.33,20.89-6.75c18.41-13.35,22.96-42.2,10.68-67.29c8.75-3.62,17.85-6.64,27.04-9c2.73,27.63,20.88,48.38,42.4,48.38
		c22.45,0,41.09-22.63,42.65-51.63c14.69,2.58,29.12,6.8,42.91,12.57c-7.41,25.95,1.36,52.73,20.5,62.41
		c4.86,2.46,10.09,3.71,15.53,3.71c12.33,0,24.77-6.44,34.21-17.68c13.49,14.1,25.05,30.05,34.39,47.42
		c-22.29,5.36-37.8,24.02-37.8,45.59c0,25.96,22.62,47.09,50.43,47.09c4.5,0,8.99-0.57,13.36-1.68c0.33,5.07,0.5,10.13,0.5,15.03
		c0,12.43-1.02,24.92-3.04,37.13c-8.25-5.49-17.31-8.39-26.26-8.39c-10.27,0-19.44,3.79-26.51,10.95
		c-17.34,17.55-16.17,50.18,2.61,72.72c4.39,5.27,9.43,9.63,14.99,12.97c-6.83,10.06-14.52,19.56-22.86,28.26
		c-9.71-14.88-24.68-23.74-40.17-23.74c-5.06,0-10.05,0.95-14.82,2.83c-24.66,9.73-36.88,41.81-27.24,71.52
		c0.22,0.69,0.46,1.37,0.7,2.04C767.92,565.82,757.55,568.53,747.06,570.4z"/>
	<path d="M746.95,142.18c14.32,2.55,28.38,6.68,41.84,12.27c-7.26,26.05,1.63,52.83,20.88,62.57c4.93,2.5,10.23,3.76,15.75,3.76
		c12.32,0,24.74-6.34,34.23-17.43c13.14,13.81,24.45,29.39,33.62,46.34c-22.18,5.61-37.55,24.32-37.55,45.92
		c0,26.24,22.85,47.59,50.93,47.59c4.34,0,8.68-0.52,12.9-1.55c0.31,4.86,0.46,9.7,0.46,14.4c0,12.15-0.98,24.35-2.91,36.29
		c-8.16-5.27-17.08-8.05-25.89-8.05c-10.41,0-19.7,3.84-26.87,11.1c-17.52,17.73-16.36,50.65,2.58,73.39
		c4.31,5.17,9.24,9.48,14.66,12.81c-6.62,9.7-14.04,18.88-22.08,27.31c-9.81-14.7-24.77-23.44-40.25-23.44
		c-5.13,0-10.17,0.97-15,2.87c-24.9,9.83-37.25,42.19-27.53,72.14c0.16,0.5,0.34,1.02,0.54,1.58c-9.62,3.32-19.59,5.93-29.69,7.76
		c0-0.26,0.01-0.52,0.01-0.78c0-30.9-19.41-56.04-43.26-56.04c-11.46,0-22.25,5.74-30.39,16.15c-7.84,10.03-12.37,23.31-12.82,37.53
		c-15.11-3.9-29.78-9.57-43.62-16.86c12.49-23.75,9.26-52.72-7.84-69.23c-8.32-8.03-18.79-12.28-30.3-12.28
		c-13.14,0-25.99,5.55-36.31,15.64c-8.05-11.46-15.02-23.76-20.75-36.6c22.34-11.15,34.41-35.15,28.75-57.43
		c-5.04-19.84-23.02-33.17-44.76-33.17c-1.09,0-2.19,0.03-3.28,0.1c0-0.26-0.01-0.52-0.01-0.78c0-11.7,0.92-23.5,2.73-35.09
		c5.22,1.69,10.54,2.55,15.83,2.55c17.31,0,31.81-8.92,38.79-23.86c10.18-21.8,0.77-50.33-21.43-65.39
		c6.88-10.54,14.71-20.51,23.3-29.68c10.29,14.93,25.39,23.8,40.61,23.8c7.68,0,15-2.37,21.18-6.85
		c18.49-13.41,23.16-42.24,11.07-67.44c8.4-3.45,17.11-6.34,25.92-8.63c2.96,27.59,21.21,48.26,42.83,48.26
		C726.4,193.72,745.17,171.17,746.95,142.18 M746.01,141c-1.32,28.85-19.69,51.72-42.18,51.72c-21.64,0-39.47-21.19-41.95-48.51
		c-9.67,2.44-19.08,5.58-28.17,9.37c12.27,24.58,8.09,53.82-10.29,67.14c-6.22,4.51-13.32,6.65-20.59,6.65
		c-14.71,0-30.13-8.76-40.48-24.4c-9.17,9.68-17.49,20.24-24.81,31.56c22.31,14.6,32.12,42.82,21.9,64.69
		c-7.01,15-21.69,23.29-37.89,23.29c-5.45,0-11.07-0.94-16.63-2.88c-1.91,11.84-2.93,24-2.93,36.41c0,0.62,0.02,1.23,0.02,1.85
		c1.43-0.12,2.86-0.18,4.27-0.18c20.65,0,38.75,12.57,43.79,32.42c5.66,22.31-7.1,46.2-29.09,56.71
		c6.04,13.7,13.4,26.63,21.92,38.62c10.49-10.66,23.66-16.19,36.44-16.19c10.76,0,21.24,3.92,29.6,12
		c17.34,16.74,19.81,45.77,7.18,68.92c14.42,7.69,29.82,13.67,45.94,17.73c0.44-29.9,19.18-53.96,42.24-53.96
		c23.34,0,42.26,24.64,42.26,55.04c0,0.67-0.02,1.32-0.04,1.98c10.98-1.92,21.67-4.72,32-8.35c-0.3-0.82-0.6-1.65-0.87-2.5
		c-9.58-29.5,2.48-61.25,26.94-70.9c4.81-1.9,9.74-2.8,14.63-2.8c15.45,0,30.51,9,40.1,24.04c8.67-8.99,16.59-18.77,23.65-29.22
		c-5.51-3.24-10.73-7.63-15.31-13.14c-18.65-22.39-19.83-54.65-2.64-72.05c7.19-7.28,16.45-10.8,26.16-10.8
		c8.92,0,18.21,2.97,26.62,8.74c2.08-12.34,3.18-25.03,3.18-37.98c0-5.27-0.19-10.49-0.54-15.67c-4.39,1.18-9.02,1.82-13.81,1.82
		c-27.57,0-49.93-20.86-49.93-46.59c0-21.91,16.21-40.27,38.05-45.25c-9.53-17.85-21.39-34.18-35.16-48.51
		c-9.38,11.38-21.87,17.93-34.19,17.93c-5.22,0-10.4-1.17-15.3-3.65c-19.39-9.81-27.62-36.62-20.12-62.25
		C776.02,147.99,761.29,143.64,746.01,141L746.01,141z"/>
</g>
<ellipse class="st2" cx="705.5" cy="360.5" rx="142.5" ry="133.5"/>
<rect x="571.35" y="323.53" class="st3" width="315.65" height="75"/>
<text transform="matrix(1 0 0 1 571.353 365.229)" class="st4 st5">DR. NUTS</text>
<g>
	<path class="st6" d="M664.4,411.84h28.5c0,22.49-12.87,41-28.5,41s-28.5-18.51-28.5-41c0-0.13,0-0.27,0-0.4L664.4,411.84z"/>
	<line class="st7" x1="663.9" y1="476.84" x2="663.9" y2="452.84"/>
	<ellipse class="st6" cx="663.9" cy="478.84" rx="17" ry="2"/>
</g>
<g>
	<path class="st8" d="M706.4,395.84h28.5c0,22.49-12.87,41-28.5,41s-28.5-18.51-28.5-41c0-0.13,0-0.27,0-0.4L706.4,395.84z"/>
	<line class="st9" x1="705.9" y1="460.84" x2="705.9" y2="436.84"/>
	<ellipse class="st8" cx="705.9" cy="462.84" rx="17" ry="2"/>
</g>
<g>
	<path class="st10" d="M746.4,376.84h28.5c0,22.49-12.87,41-28.5,41s-28.5-18.51-28.5-41c0-0.13,0-0.27,0-0.4L746.4,376.84z"/>
	<line class="st11" x1="745.9" y1="441.84" x2="745.9" y2="417.84"/>
	<ellipse class="st10" cx="745.9" cy="443.84" rx="17" ry="2"/>
</g>
</svg>
