<?xml version="1.0" encoding="utf-8"?>
<!-- Generator: Adobe Illustrator 28.1.0, SVG Export Plug-In . SVG Version: 6.00 Build 0)  -->
<svg version="1.1" id="Layer_1" xmlns="http://www.w3.org/2000/svg" xmlns:xlink="http://www.w3.org/1999/xlink" x="0px" y="0px"
	 viewBox="0 0 1366 768" style="enable-background:new 0 0 1366 768;" xml:space="preserve">
<style type="text/css">
	.st0{fill:#42210B;}
	.st1{fill:#754C24;}
	.st2{fill:#FBB03B;}
</style>
<g>
	<rect x="402.5" y="216.5" class="st0" width="404" height="248"/>
	<path d="M805,218v245H404V218H805 M808,215H401v251h407V215L808,215z"/>
</g>
<g>
	<rect x="413.5" y="224.5" class="st1" width="383" height="230"/>
	<path d="M795,226v227H415V226H795 M798,223H412v233h386V223L798,223z"/>
</g>
<g>
	<rect x="476.5" y="297.5" class="st2" width="256" height="85"/>
	<path d="M731,299v82H478v-82H731 M734,296H475v88h259V296L734,296z"/>
</g>
<g>
	<path d="M512.28,319.95c3.26,0,5.99,0.25,8.17,0.76c2.19,0.51,4.13,1.31,5.83,2.4c1.7,1.09,3.07,2.4,4.12,3.91
		c1.04,1.51,1.82,3.27,2.33,5.27c0.51,2,0.76,4.26,0.76,6.78c0,3.05-0.36,5.78-1.07,8.2c-0.71,2.42-1.78,4.49-3.21,6.21
		c-1.27,1.54-2.83,2.81-4.67,3.81s-3.97,1.7-6.37,2.11c-2.07,0.35-4.68,0.53-7.82,0.53h-13.3v-1.93c0.72-0.19,1.29-0.41,1.71-0.63
		c0.42-0.22,0.73-0.54,0.94-0.94c0.21-0.4,0.34-0.91,0.4-1.52s0.09-1.39,0.09-2.33v-25.25c0-0.92-0.02-1.69-0.07-2.31
		c-0.05-0.62-0.18-1.13-0.38-1.52c-0.21-0.39-0.52-0.71-0.94-0.95c-0.42-0.24-1-0.46-1.74-0.66v-1.93H512.28z M509.26,356.4
		c0.35,0.06,1.24,0.09,2.67,0.09c2.15,0,3.96-0.31,5.42-0.94c1.09-0.47,2.02-1.11,2.78-1.93c1.27-1.35,2.23-3.1,2.87-5.24
		c0.7-2.34,1.05-5.2,1.05-8.58c0-3.71-0.5-6.79-1.49-9.24c-1-2.45-2.4-4.26-4.2-5.42c-1.81-1.16-3.97-1.74-6.49-1.74
		c-1.21,0-2.08,0.02-2.61,0.06V356.4z"/>
	<path d="M554.7,359.94h-15.38v-1.93c0.72-0.19,1.29-0.41,1.71-0.63c0.42-0.22,0.73-0.54,0.94-0.94c0.21-0.4,0.34-0.91,0.4-1.52
		s0.09-1.39,0.09-2.33v-25.25c0-0.92-0.02-1.69-0.07-2.31c-0.05-0.62-0.18-1.13-0.38-1.52c-0.21-0.39-0.52-0.71-0.94-0.95
		c-0.42-0.24-1-0.46-1.74-0.66v-1.93h17.08c2.3,0,4.26,0.16,5.87,0.48s3.02,0.82,4.23,1.48c1.02,0.55,1.88,1.24,2.58,2.07
		c0.7,0.83,1.25,1.8,1.63,2.9c0.38,1.1,0.57,2.39,0.57,3.85c0,1.91-0.34,3.56-1.01,4.92c-0.67,1.37-1.58,2.5-2.72,3.41
		s-2.67,1.76-4.58,2.56v0.29c1.45,0.63,2.64,1.46,3.59,2.5c0.95,1.04,1.8,2.37,2.56,3.97l1.85,3.98c0.82,1.78,1.64,3.11,2.45,4
		c0.81,0.89,1.77,1.43,2.89,1.63v1.93h-11.28c-1.13-1.56-2.41-3.89-3.84-6.97l-2.29-5.01c-0.68-1.48-1.27-2.54-1.76-3.16
		c-0.49-0.62-0.99-1.05-1.51-1.29c-0.52-0.23-1.31-0.35-2.39-0.35h-1.7v9.43c0,1.46,0.07,2.49,0.21,3.08
		c0.14,0.59,0.4,1.05,0.79,1.41c0.39,0.35,1.11,0.66,2.17,0.94V359.94z M551.54,323.44v16.29h2.9c1.56,0,2.85-0.21,3.87-0.63
		c1.02-0.42,1.82-1.01,2.42-1.76c0.6-0.75,1.01-1.64,1.23-2.65c0.22-1.02,0.34-2.13,0.34-3.34c0-2.66-0.63-4.65-1.88-5.98
		c-1.25-1.33-3.11-1.99-5.57-1.99C553.17,323.38,552.07,323.4,551.54,323.44z"/>
	<path d="M587.11,351.09v8.85h-7.88v-8.85H587.11z"/>
	<path d="M641.66,319.95v1.93c-0.78,0.25-1.33,0.47-1.66,0.64s-0.6,0.41-0.82,0.7c-0.22,0.29-0.4,0.74-0.51,1.33
		c-0.12,0.6-0.18,1.51-0.18,2.74v32.64h-7.44l-13.18-22.79c-1.78-3.09-3.09-5.51-3.93-7.27h-0.26c0.19,4.2,0.29,8.63,0.29,13.3v9.43
		c0,1.46,0.07,2.49,0.22,3.08s0.41,1.05,0.79,1.39c0.38,0.34,1.1,0.65,2.15,0.92v1.93h-11.07v-1.93c0.72-0.19,1.29-0.41,1.71-0.64
		c0.42-0.23,0.73-0.55,0.94-0.95c0.21-0.4,0.34-0.9,0.4-1.51c0.06-0.6,0.09-1.37,0.09-2.29v-25.34c0-1.46-0.06-2.48-0.19-3.03
		c-0.13-0.56-0.39-1.02-0.79-1.39c-0.4-0.37-1.12-0.69-2.15-0.97v-1.93h11.87l10.37,18.02c0.64,1.13,1.48,2.67,2.52,4.6
		c1.04,1.93,1.95,3.76,2.75,5.48h0.47c-0.22-4.67-0.32-9.77-0.32-15.29v-5.45c0-1.27-0.05-2.19-0.15-2.75
		c-0.1-0.57-0.25-1-0.45-1.29s-0.48-0.54-0.82-0.73c-0.34-0.19-0.91-0.41-1.71-0.64v-1.93H641.66z"/>
	<path d="M672.71,327.3c0-1.46-0.06-2.49-0.19-3.06c-0.13-0.58-0.38-1.04-0.75-1.39c-0.37-0.35-1.09-0.67-2.17-0.97v-1.93h12.89
		v1.93c-0.7,0.2-1.26,0.41-1.67,0.63c-0.41,0.22-0.72,0.54-0.94,0.94c-0.22,0.4-0.35,0.91-0.41,1.52s-0.09,1.39-0.09,2.33v18.31
		c0,2.42-0.2,4.45-0.59,6.08c-0.39,1.63-1,3-1.82,4.12s-1.84,2.01-3.06,2.7c-1.22,0.68-2.59,1.17-4.12,1.46s-3.23,0.44-5.13,0.44
		c-2.77,0-5.12-0.29-7.03-0.86c-1.91-0.58-3.47-1.45-4.67-2.61c-1.2-1.16-2.09-2.57-2.67-4.23c-0.58-1.66-0.86-3.8-0.86-6.42v-18.96
		c0-0.92-0.02-1.69-0.07-2.31c-0.05-0.62-0.18-1.13-0.38-1.52c-0.21-0.39-0.52-0.71-0.94-0.95c-0.42-0.24-1-0.46-1.74-0.66v-1.93
		h15.38v1.93c-0.8,0.22-1.39,0.44-1.77,0.69c-0.38,0.24-0.67,0.54-0.86,0.89c-0.2,0.35-0.33,0.81-0.41,1.38
		c-0.08,0.57-0.12,1.4-0.12,2.49v19.34c0,1.54,0.1,2.95,0.29,4.22c0.19,1.27,0.55,2.36,1.07,3.27c0.52,0.91,1.23,1.61,2.15,2.09
		c0.92,0.49,2.1,0.73,3.54,0.73c1.99,0,3.48-0.4,4.45-1.2c0.98-0.8,1.67-1.92,2.07-3.35c0.4-1.44,0.6-3.58,0.6-6.43V327.3z"/>
	<path d="M695.77,359.94v-1.93c0.82-0.14,1.47-0.32,1.95-0.54c0.48-0.22,0.83-0.54,1.07-0.95s0.38-0.93,0.44-1.57
		c0.06-0.63,0.09-1.42,0.09-2.36v-29.21h-2.37c-1.17,0-2.07,0.14-2.7,0.41c-0.62,0.27-1.17,0.7-1.63,1.29s-0.85,1.37-1.19,2.36
		c-0.33,0.99-0.61,1.92-0.82,2.8h-4.01v-10.28h34.48v10.28h-4.01c-0.37-1.33-0.66-2.3-0.88-2.93c-0.21-0.62-0.45-1.16-0.72-1.6
		s-0.54-0.81-0.83-1.1s-0.61-0.53-0.94-0.7s-0.75-0.31-1.25-0.4s-1.15-0.13-1.95-0.13h-2.11v29.21c0,1.04,0.03,1.82,0.09,2.36
		c0.06,0.54,0.17,0.97,0.32,1.3c0.16,0.33,0.35,0.6,0.57,0.81s0.54,0.39,0.94,0.56c0.4,0.17,0.94,0.3,1.63,0.4v1.93H695.77z"/>
</g>
</svg>
